<svg xmlns="http://www.w3.org/2000/svg" xmlns:xlink="http://www.w3.org/1999/xlink" version="1.1" x="0px" y="0px" viewBox="0 0 100 125" style="enable-background:new 0 0 100 100;" xml:space="preserve"><path fill='#c6c9d0' d="M80.2460938,30.1884766c-0.2290039-0.5029297-0.8203125-0.7255859-1.324707-0.4951172l-5.1367188,2.3417969  c-0.5024414,0.2294922-0.7241211,0.8222656-0.4946289,1.3251953c0.1674805,0.3681641,0.5307617,0.5849609,0.9101562,0.5849609  c0.1386719,0,0.2797852-0.0283203,0.4145508-0.0898438l5.1367188-2.3417969  C80.2539062,31.2841797,80.4755859,30.6914062,80.2460938,30.1884766z"/><path fill='#c6c9d0' d="M88.5322266,25.46875l-5.9692383,2.7207031c-0.5029297,0.2294922-0.7246094,0.8222656-0.4956055,1.3251953  c0.1679688,0.3681641,0.5307617,0.5849609,0.9106445,0.5849609c0.1386719,0,0.2797852-0.0283203,0.4140625-0.0898438  l5.9692383-2.7207031c0.5029297-0.2294922,0.7246094-0.8222656,0.4956055-1.3251953  C89.6269531,25.4609375,89.0341797,25.2382812,88.5322266,25.46875z"/><path fill='#c6c9d0' d="M66.9604492,26.2705078c0.3486328,0,0.6875-0.1826172,0.871582-0.5078125l2.7822266-4.9199219  c0.2714844-0.4804688,0.1025391-1.0908203-0.378418-1.3623047c-0.480957-0.2724609-1.0908203-0.1025391-1.362793,0.3779297  l-2.7822266,4.9199219c-0.2714844,0.4804688-0.1025391,1.0908203,0.378418,1.3623047  C66.6245117,26.2285156,66.7939453,26.2705078,66.9604492,26.2705078z"/><path fill='#c6c9d0' d="M71.793457,17.8535156c0.3486328,0,0.6875-0.1826172,0.871582-0.5078125l3.2333984-5.7167969  c0.2714844-0.4804688,0.1025391-1.0908203-0.378418-1.3623047s-1.0908203-0.1025391-1.362793,0.3779297l-3.2333984,5.7167969  c-0.2714844,0.4804688-0.1025391,1.0908203,0.378418,1.3623047C71.4575195,17.8115234,71.6269531,17.8535156,71.793457,17.8535156z"/><path fill='#c6c9d0' d="M84.2197266,10.6005859c-0.3530273-0.3544922-0.8369141-0.5488281-1.3623047-0.5488281  c-0.0004883,0-0.0004883,0-0.0009766,0c-0.625,0-1.2583008,0.2753906-1.7382812,0.7558594l-4.0292969,4.0351562  c-0.9111328,0.9121094-1.0043945,2.3046875-0.2080078,3.1025391l5.1796875,5.1923828  c0.3530273,0.3554688,0.8374023,0.5507812,1.3632812,0.5507812c0.0004883,0,0.0009766,0,0.0009766,0  c0.6254883,0,1.2592773-0.2753906,1.7382812-0.7558594l4.0292969-4.0351562  c0.9111328-0.9121094,1.0043945-2.3046875,0.2080078-3.1025391L84.2197266,10.6005859z M87.7773438,17.4833984l-4.0297852,4.0361328  c-0.1240234,0.1240234-0.2495117,0.1630859-0.3081055,0.1689453l-5.1044922-5.0927734  c-0.0068359-0.0390625,0.0200195-0.1904297,0.1689453-0.3398438l4.0292969-4.0351562  c0.1474609-0.1474609,0.296875-0.1757812,0.2705078-0.2080078l5.1425781,5.1318359  C87.953125,17.1835938,87.9262695,17.3349609,87.7773438,17.4833984z"/><path fill='#c6c9d0' d="M10.9780273,72.3076172l16.7167969,16.7519531c0.6313477,0.6318359,1.4711914,0.9794922,2.3637695,0.9794922  s1.7324219-0.3476562,2.3642578-0.9804688l13.5625-13.5908203c10.4360352-10.4560547,13.2797852-18.5224609,14.6855469-25.0341797  c1.4555664-6.7431641,6.8979492-11.6220703,6.9985352-11.7138672l2.3564453-2.3613281  c0.3891602-0.3896484,0.3891602-1.0224609,0-1.4121094l-5.0390625-5.0488281c-0.3759766-0.3769531-1.0400391-0.3769531-1.4160156,0  l-2.3999023,2.4072266c-0.0483398,0.0556641-4.8950195,5.5029297-11.6445312,6.9658203  c-6.4980469,1.4082031-14.5478516,4.2568359-24.9858398,14.7158203L10.9785156,67.5771484  C9.6757812,68.8808594,9.6757812,71.0039062,10.9780273,72.3076172z M45.7709961,53.2304688  c0.0629883,0.4384766,0.4077148,0.7841797,0.847168,0.8476562l10.5119019,1.515625  c-1.7333374,4.7895508-4.8461304,10.3635864-11.131958,16.9850464L27.4271851,53.9700928  c6.5639648-6.2565918,12.0956421-9.3762817,16.8529053-11.119751L45.7709961,53.2304688z M62.6303711,33.6708984  l1.6484375-1.6513672l3.6264648,3.6328125l-1.6049805,1.6113281c-0.1366577,0.1203003-1.9968872,1.7836304-3.8882446,4.5217285  l-4.2529907-4.2616577C60.8860474,35.6338501,62.534729,33.7818604,62.6303711,33.6708984z M49.9501953,41.2255859  c2.4428101-0.5296631,4.6303101-1.515625,6.4807129-2.6025391l4.883606,4.8935547  c-1.0863647,1.8556519-2.0703125,4.0474854-2.5986938,6.4951172c-0.2511597,1.1636353-0.5510864,2.3798828-0.9379883,3.6538696  L47.644043,52.2050781l-1.4375-10.0089111C47.5130005,41.7942505,48.7596436,41.4834595,49.9501953,41.2255859z   M25.956543,55.3984375c0.012146-0.012207,0.0238037-0.0227661,0.0359497-0.0349121l18.6149292,18.652771  c-0.0132446,0.0133057-0.0247803,0.026062-0.0380859,0.0393677l-8.6179199,8.6356201L17.3355103,64.0374756L25.956543,55.3984375z   M12.394043,68.9892578l3.5288696-3.5361938l18.6159058,18.6537476l-3.5314941,3.5386963  c-0.5068359,0.5078125-1.3911133,0.5068359-1.8969727,0.0009766L12.3935547,70.8945312  C11.8691406,70.3701172,11.8691406,69.5146484,12.394043,68.9892578z"/><path fill='#c6c9d0' d="M83.8681641,44.4345703c-3.3813477,0-6.1318359,2.7480469-6.1318359,6.125  c0,3.3779297,2.7504883,6.1259766,6.1318359,6.1259766S90,53.9375,90,50.5595703  C90,47.1826172,87.2495117,44.4345703,83.8681641,44.4345703z M83.8681641,54.6855469  c-2.2783203,0-4.1318359-1.8505859-4.1318359-4.1259766c0-2.2744141,1.8535156-4.125,4.1318359-4.125S88,48.2851562,88,50.5595703  C88,52.8349609,86.1464844,54.6855469,83.8681641,54.6855469z"/><path fill='#c6c9d0' d="M72.7900391,71.3769531c0.4243164,1.5800781,1.4389648,2.9013672,2.8579102,3.7207031  c0.9633789,0.5556641,2.0161133,0.8203125,3.0561523,0.8203125c2.1201172,0,4.1845703-1.0986328,5.3178711-3.0615234  c0.8188477-1.4169922,1.0361328-3.0683594,0.6118164-4.6494141c-0.4243164-1.5800781-1.4389648-2.9013672-2.8574219-3.7207031  c0,0,0,0-0.0004883,0c-2.9296875-1.6894531-6.6855469-0.6835938-8.3740234,2.2412109  C72.5830078,68.1445312,72.3657227,69.7958984,72.7900391,71.3769531z M75.1333008,67.7275391  c0.7636719-1.3212891,2.1547852-2.0615234,3.5830078-2.0615234c0.7011719,0,1.4111328,0.1777344,2.0600586,0.5527344  c0.9560547,0.5517578,1.6396484,1.4423828,1.9257812,2.5068359c0.2856445,1.0644531,0.1391602,2.1767578-0.4116211,3.1308594  c-1.1391602,1.9707031-3.6689453,2.6484375-5.6430664,1.5087891c-0.9560547-0.5517578-1.6401367-1.4423828-1.9257812-2.5068359  S74.5820312,68.6826172,75.1333008,67.7275391z"/><path fill='#c6c9d0' d="M67.6899414,89.1787109c1.4179688-0.8183594,2.4321289-2.1386719,2.855957-3.7197266  c0.4233398-1.5810547,0.2055664-3.2324219-0.6137695-4.6503906c-1.6904297-2.9267578-5.4462891-3.9355469-8.3735352-2.2460938  c-1.4179688,0.8183594-2.4316406,2.1396484-2.8549805,3.7207031s-0.2055664,3.2333984,0.6137695,4.6503906  c1.1347656,1.9648438,3.199707,3.0644531,5.3203125,3.0644531C65.6762695,89.9980469,66.7280273,89.734375,67.6899414,89.1787109z   M61.0488281,85.9335938c-0.5517578-0.9550781-0.6987305-2.0673828-0.4135742-3.1328125  c0.2851562-1.0644531,0.9682617-1.9550781,1.9228516-2.5058594c0.6484375-0.3740234,1.3564453-0.5517578,2.0561523-0.5517578  c1.4291992,0,2.8212891,0.7412109,3.5864258,2.0654297c0.5512695,0.9550781,0.6982422,2.0673828,0.4130859,3.1328125  c-0.2851562,1.0644531-0.9682617,1.9541016-1.9233398,2.5048828C64.7202148,88.5849609,62.1884766,87.9052734,61.0488281,85.9335938  z"/><path fill='#c6c9d0' d="M10.8212891,32.2832031c-0.8183594,1.4160156-1.0351562,3.0664062-0.6113281,4.6474609  c0.4243164,1.5791016,1.4384766,2.9003906,2.855957,3.71875h0.0004883c0.9628906,0.5556641,2.0151367,0.8193359,3.0541992,0.8193359  c2.1191406,0,4.1831055-1.0976562,5.315918-3.0595703c0.8183594-1.4160156,1.0356445-3.0664062,0.6113281-4.6464844  s-1.4384766-2.9013672-2.855957-3.71875C16.2646484,28.3554688,12.5102539,29.3583984,10.8212891,32.2832031z   M12.5527344,33.2832031c1.1367188-1.96875,3.6655273-2.6474609,5.6396484-1.5068359  c0.9550781,0.5507812,1.6381836,1.4404297,1.9238281,2.5048828c0.2856445,1.0634766,0.1396484,2.1738281-0.4111328,3.1279297  c-1.1362305,1.96875-3.6655273,2.6455078-5.6396484,1.5078125h0.0004883  c-0.9550781-0.5517578-1.6386719-1.4414062-1.9243164-2.5048828C11.8564453,35.3476562,12.0024414,34.2373047,12.5527344,33.2832031  z"/><path fill='#c6c9d0' d="M30.2207031,27.3994141c1.0380859,0,2.0898438-0.2636719,3.0512695-0.8183594  c1.4174805-0.8173828,2.4311523-2.1376953,2.8540039-3.71875c0.4233398-1.5800781,0.2055664-3.2304688-0.6132812-4.6474609  c-1.6894531-2.9257812-5.4423828-3.9306641-8.3691406-2.2441406c-1.4169922,0.8183594-2.4306641,2.1386719-2.8540039,3.71875  c-0.4228516,1.5800781-0.2055664,3.2304688,0.6132812,4.6474609C26.0371094,26.3007812,28.1010742,27.4003906,30.2207031,27.3994141  z M26.2216797,20.2070312c0.2851562-1.0634766,0.9672852-1.953125,1.921875-2.5039062  c0.6474609-0.3740234,1.3554688-0.5517578,2.0546875-0.5517578c1.4277344,0,2.8188477,0.7412109,3.5830078,2.0634766  c0.5512695,0.9541016,0.6977539,2.0664062,0.4130859,3.1298828c-0.2851562,1.0644531-0.9672852,1.953125-1.921875,2.5039062  c-1.9716797,1.1386719-4.5,0.4580078-5.6381836-1.5117188C26.0830078,22.3828125,25.9365234,21.2714844,26.2216797,20.2070312z"/><path fill='#c6c9d0' d="M55.5654297,16.1259766C55.5654297,12.7480469,52.8173828,10,49.4399414,10  c-3.3779297,0-6.1259766,2.7480469-6.1259766,6.1259766s2.7480469,6.1259766,6.1259766,6.1259766  C52.8173828,22.2519531,55.5654297,19.5039062,55.5654297,16.1259766z M45.3139648,16.1259766  C45.3139648,13.8505859,47.1650391,12,49.4399414,12s4.1254883,1.8505859,4.1254883,4.1259766  s-1.8505859,4.1259766-4.1254883,4.1259766S45.3139648,18.4013672,45.3139648,16.1259766z"/><path fill='#c6c9d0' d="M71.5678711,29.6357422l5.1010742-5.1005859c0.390625-0.390625,0.390625-1.0234375,0-1.4140625  s-1.0234375-0.390625-1.4140625,0l-5.1010742,5.1005859c-0.390625,0.390625-0.390625,1.0234375,0,1.4140625  c0.1953125,0.1953125,0.4511719,0.2929688,0.7070312,0.2929688S71.3725586,29.8310547,71.5678711,29.6357422z"/></svg>