<?xml version="1.0" encoding="utf-8"?>
<!-- Generator: Adobe Illustrator 23.0.5, SVG Export Plug-In . SVG Version: 6.00 Build 0)  -->
<svg version="1.1" xmlns="http://www.w3.org/2000/svg" xmlns:xlink="http://www.w3.org/1999/xlink" x="0px" y="0px"
	 viewBox="0 0 2000 2000" style="enable-background:new 0 0 2000 2000;" xml:space="preserve">
<style type="text/css">
	.st0{fill-rule:evenodd;clip-rule:evenodd;fill:#EEEFEA;}
	.st1{fill-rule:evenodd;clip-rule:evenodd;fill:#A49D97;}
</style>
<g id="Background">
	<rect x="0" y="0" class="st0" width="2000" height="2000"/>
</g>
<g id="Pattern">
	<g>
		<path class="st1" d="M187.4,190.8c27.9-28.8,45.1-68.5,45.1-112.3c0-28.5-7.3-55.3-20.1-78.5H208c13.1,23,20.6,49.8,20.6,78.5
			c0,42.8-16.8,81.6-44,109.7c-26.8,27.6-63.6,44.8-104.3,45.3V0h-3.8v233.5c-28-0.4-54.2-8.6-76.6-22.8v4.5
			c23,14.1,49.8,22.1,78.5,22.1C121,237.3,159.5,219.6,187.4,190.8z"/>
		<path class="st1" d="M466.2,30.4c28.8,27.9,68.5,45.1,112.3,45.1c43.9,0,83.6-17.2,112.3-45.1c9.4-9.1,17.6-19.3,24.4-30.4h-4.5
			c-6.4,10.1-14,19.4-22.6,27.7c-28.1,27.2-66.8,44-109.7,44c-42.8,0-81.6-16.8-109.7-44c-8.6-8.3-16.2-17.6-22.6-27.7h-4.5
			C448.6,11.1,456.8,21.3,466.2,30.4z"/>
		<path class="st1" d="M1078.5,237.3c42.5,0,81-17.8,108.9-46.6c27.9-28.8,45.1-68.5,45.1-112.3c0-28.5-7.3-55.3-20.1-78.5h-4.4
			c13.1,23,20.6,49.8,20.6,78.5c0,42.8-16.8,81.6-44,109.7c-26.8,27.6-63.6,44.8-104.3,45.3V0h-3.8v233.5
			c-40.7-0.5-77.5-17.7-104.3-45.3c-27.2-28.1-44-66.8-44-109.7c0-28.6,7.5-55.5,20.6-78.5h-4.4c-12.8,23.2-20.1,49.9-20.1,78.5
			c0,43.9,17.2,83.6,45.1,112.3C997.4,219.6,1035.9,237.3,1078.5,237.3z"/>
		<path class="st1" d="M1466.2,30.4c28.8,27.9,68.5,45.1,112.3,45.1c43.9,0,83.6-17.2,112.3-45.1c9.4-9.1,17.6-19.3,24.4-30.4h-4.5
			c-6.4,10.1-14,19.4-22.6,27.7c-28.1,27.2-66.8,44-109.7,44c-42.8,0-81.6-16.8-109.7-44c-8.6-8.3-16.2-17.6-22.6-27.7h-4.5
			C1448.6,11.1,1456.8,21.3,1466.2,30.4z"/>
		<path class="st1" d="M1752.1,240.7c0.1-2.9,0.1-5.7,0.2-8.6c0.1-2.8,0.3-5.5,0.4-8.3c0.1-2.8,0.3-5.7,0.5-8.5
			c0.2-2.7,0.5-5.5,0.7-8.2c0.2-2.8,0.4-5.7,0.7-8.5c0.3-2.7,0.6-5.4,0.9-8c0.3-2.8,0.6-5.7,1-8.5c0.4-2.7,0.8-5.3,1.2-8
			c0.4-2.8,0.8-5.6,1.3-8.3c0.5-2.6,1-5.3,1.5-7.9c0.5-2.8,1-5.5,1.6-8.2c0.5-2.6,1.2-5.2,1.7-7.8c0.6-2.7,1.2-5.4,1.8-8.1
			c0.6-2.7,1.4-5.3,2-7.9c0.7-2.6,1.3-5.2,2-7.8c0.7-2.7,1.6-5.4,2.3-8c0.7-2.5,1.4-5,2.2-7.5c0.9-2.7,1.8-5.5,2.7-8.2
			c0.8-2.4,1.5-4.8,2.4-7.2c1-2.8,2-5.5,3-8.3c0.8-2.3,1.6-4.6,2.5-6.9c1.1-2.9,2.3-5.8,3.5-8.6c0.8-2.1,1.6-4.2,2.5-6.2
			c1.3-3.1,2.7-6.2,4.1-9.3c0.8-1.8,1.5-3.6,2.4-5.4c1.6-3.5,3.3-7,5-10.5c0.6-1.3,1.2-2.6,1.9-3.9c2.1-4.2,4.3-8.3,6.5-12.4
			c0.3-0.6,0.6-1.1,0.9-1.7c2.5-4.7,5.1-9.3,7.8-13.9h0h-4.4h0c-32.6,56.7-54.4,120.4-62.8,188.3V0h-3.8v248.1c-1.1,0-2.1,0-3.2,0
			c-3,0-6.1-0.1-9.1-0.1c-1.2,0-2.4-0.1-3.6-0.1c-3-0.1-6.1-0.2-9.1-0.4c-1.2-0.1-2.3-0.2-3.5-0.2c-3.1-0.2-6.1-0.4-9.2-0.6
			c-1.1-0.1-2.2-0.2-3.4-0.3c-3.1-0.3-6.1-0.5-9.2-0.8c-1.1-0.1-2.1-0.2-3.2-0.4c-3.1-0.3-6.2-0.7-9.3-1.1c-1.1-0.1-2.1-0.3-3.2-0.4
			c-3.1-0.4-6.1-0.8-9.2-1.3c-1.1-0.2-2.1-0.4-3.2-0.5c-3.1-0.5-6.1-1-9.1-1.5c-1-0.2-2-0.4-3-0.6c-3.1-0.6-6.1-1.2-9.2-1.8
			c-1-0.2-2-0.4-2.9-0.6c-3-0.6-6.1-1.3-9.1-2c-1-0.2-2-0.5-3-0.7c-3-0.7-6-1.4-8.9-2.2c-1-0.3-2-0.5-2.9-0.8
			c-3-0.8-5.9-1.6-8.9-2.4c-1-0.3-1.9-0.6-2.9-0.9c-2.9-0.9-5.9-1.7-8.8-2.6c-1-0.3-1.9-0.6-2.9-0.9c-2.9-0.9-5.8-1.9-8.7-2.9
			c-0.9-0.3-1.9-0.7-2.8-1c-2.9-1-5.8-2-8.6-3.1c-1-0.4-1.9-0.7-2.9-1.1c-2.8-1.1-5.6-2.1-8.4-3.2c-1-0.4-2-0.8-3-1.2
			c-2.7-1.1-5.5-2.2-8.2-3.4c-1-0.4-2-0.9-3-1.3c-2.7-1.2-5.4-2.3-8.1-3.5c-1-0.5-2-0.9-3-1.4c-2.6-1.2-5.3-2.4-7.9-3.7
			c-1-0.5-2-1-3.1-1.5c-2.6-1.3-5.2-2.5-7.7-3.8c-1-0.5-2.1-1.1-3.1-1.6c-2.5-1.3-5-2.6-7.5-4c-1.1-0.6-2.1-1.2-3.2-1.8
			c-2.4-1.3-4.8-2.7-7.2-4.1c-1.1-0.6-2.2-1.3-3.3-1.9c-2.4-1.4-4.7-2.8-7-4.2c-1.1-0.7-2.2-1.4-3.3-2.1c-2.3-1.4-4.6-2.8-6.8-4.3
			c-1.2-0.7-2.3-1.5-3.5-2.3c-2.2-1.4-4.4-2.8-6.5-4.3c-1.2-0.8-2.5-1.7-3.7-2.6c-2.1-1.4-4.1-2.8-6.1-4.3c-1.2-0.9-2.5-1.8-3.7-2.7
			c-2-1.4-4-2.9-6-4.3c-1.3-1-2.5-1.9-3.8-2.9c-1.9-1.4-3.8-2.9-5.7-4.4c-1.3-1-2.6-2.1-4-3.2c-1.8-1.4-3.6-2.8-5.3-4.3
			c-1.4-1.1-2.7-2.3-4.1-3.5c-1.7-1.4-3.4-2.8-5-4.2c-1.4-1.3-2.9-2.5-4.3-3.8c-1.5-1.4-3.1-2.7-4.6-4.1c-1.5-1.4-3-2.8-4.5-4.2
			c-1.4-1.3-2.8-2.6-4.2-4c-2.9-2.7-5.7-5.5-8.5-8.3c-10.3-10.3-20.1-21-29.4-32.2c-18.3-21.8-34.9-45.2-49.3-70h0h-4.4h0
			c11.1,19.2,23.4,37.7,36.8,55.2c13.4,17.5,28,34.1,43.6,49.7c77.1,77.1,179.1,129.2,292.8,143.2h-436V0h-3.8v248.1H751.9
			c0-2.5,0.1-5,0.1-7.4c0.1-2.9,0.1-5.7,0.2-8.6c0.1-2.8,0.3-5.5,0.4-8.3c0.1-2.8,0.3-5.7,0.5-8.5c0.2-2.7,0.5-5.5,0.7-8.2
			c0.2-2.8,0.4-5.7,0.7-8.5c0.3-2.7,0.6-5.4,1-8.1c0.3-2.8,0.6-5.6,1-8.4c0.4-2.7,0.8-5.4,1.2-8c0.4-2.8,0.8-5.5,1.3-8.3
			c0.5-2.7,1-5.3,1.5-8c0.5-2.7,1-5.5,1.5-8.2c0.5-2.7,1.2-5.3,1.7-7.9c0.6-2.7,1.2-5.4,1.8-8c0.6-2.7,1.4-5.3,2-7.9
			c0.7-2.6,1.3-5.2,2-7.8c0.7-2.7,1.6-5.4,2.3-8c0.7-2.5,1.4-5,2.2-7.5c0.9-2.7,1.8-5.5,2.7-8.2c0.8-2.4,1.5-4.8,2.4-7.2
			c1-2.8,2-5.6,3.1-8.4c0.8-2.2,1.6-4.5,2.5-6.7c1.1-2.9,2.3-5.8,3.5-8.7c0.8-2,1.6-4.1,2.5-6.1c1.3-3.1,2.7-6.2,4.1-9.3
			c0.8-1.8,1.5-3.6,2.4-5.4c1.6-3.5,3.3-7,5-10.5c0.6-1.3,1.2-2.6,1.9-3.9c2.1-4.2,4.3-8.3,6.5-12.4c0.3-0.6,0.6-1.1,0.9-1.7
			c2.5-4.7,5.1-9.3,7.8-13.9h0h-4.4h0c-32.6,56.7-54.4,120.4-62.8,188.3V0h-3.8v248.1c-1.1,0-2.1,0-3.2,0c-3,0-6.1-0.1-9.1-0.1
			c-1.2,0-2.4-0.1-3.6-0.1c-3-0.1-6.1-0.2-9.1-0.4c-1.2-0.1-2.3-0.2-3.5-0.2c-3.1-0.2-6.1-0.4-9.2-0.6c-1.1-0.1-2.3-0.2-3.4-0.3
			c-3.1-0.3-6.1-0.5-9.2-0.8c-1.1-0.1-2.1-0.2-3.2-0.4c-3.1-0.3-6.2-0.7-9.3-1.1c-1.1-0.1-2.1-0.3-3.2-0.4c-3.1-0.4-6.1-0.8-9.2-1.3
			c-1.1-0.2-2.1-0.4-3.2-0.5c-3.1-0.5-6.1-1-9.1-1.5c-1-0.2-2-0.4-3-0.6c-3.1-0.6-6.1-1.2-9.2-1.8c-1-0.2-2-0.4-3-0.6
			c-3-0.6-6.1-1.3-9.1-2c-1-0.2-2-0.5-3-0.7c-3-0.7-6-1.4-8.9-2.2c-1-0.3-2-0.5-2.9-0.8c-3-0.8-5.9-1.6-8.9-2.4
			c-1-0.3-2-0.6-2.9-0.9c-2.9-0.9-5.9-1.7-8.8-2.6c-1-0.3-1.9-0.6-2.9-0.9c-2.9-0.9-5.8-1.9-8.7-2.8c-1-0.3-1.9-0.7-2.9-1
			c-2.9-1-5.8-2-8.6-3c-1-0.4-1.9-0.7-2.9-1.1c-2.8-1.1-5.6-2.1-8.4-3.2c-1-0.4-2-0.8-3-1.2c-2.7-1.1-5.5-2.2-8.2-3.4
			c-1-0.4-2-0.9-3-1.3c-2.7-1.2-5.4-2.3-8.1-3.5c-1-0.5-2-1-3.1-1.4c-2.6-1.2-5.3-2.4-7.9-3.7c-1-0.5-2-1-3.1-1.5
			c-2.6-1.3-5.2-2.5-7.7-3.8c-1-0.5-2.1-1.1-3.1-1.6c-2.5-1.3-5-2.6-7.5-4c-1.1-0.6-2.2-1.2-3.2-1.8c-2.4-1.3-4.8-2.7-7.2-4
			c-1.1-0.7-2.2-1.3-3.4-2c-2.3-1.4-4.7-2.7-7-4.1c-1.1-0.7-2.2-1.4-3.3-2.1c-2.3-1.4-4.6-2.8-6.8-4.3c-1.2-0.8-2.3-1.5-3.5-2.3
			c-2.2-1.4-4.3-2.8-6.4-4.2c-1.3-0.9-2.5-1.8-3.8-2.6c-2-1.4-4-2.8-6-4.2c-1.2-0.9-2.5-1.8-3.7-2.7c-2-1.4-4-2.9-6-4.3
			c-1.3-1-2.5-1.9-3.8-2.9c-1.9-1.4-3.8-2.9-5.7-4.4c-1.3-1-2.6-2.1-4-3.2c-1.8-1.4-3.6-2.8-5.3-4.3c-1.4-1.1-2.7-2.3-4.1-3.5
			c-1.7-1.4-3.4-2.8-5-4.2c-1.4-1.3-2.9-2.5-4.3-3.8c-1.5-1.4-3.1-2.7-4.6-4.1c-1.5-1.4-3-2.8-4.5-4.2c-1.4-1.3-2.8-2.6-4.2-4
			c-2.9-2.7-5.7-5.5-8.5-8.3c-10.3-10.3-20.1-21-29.4-32.2c-18.3-21.8-34.9-45.2-49.3-70h0h-4.4h0c11.1,19.2,23.4,37.7,36.8,55.2
			c13.4,17.5,28,34.1,43.6,49.7c77.1,77.1,179.1,129.2,292.8,143.2h-436V0h-3.8v248.1H0v3.8h248.1v436
			c-12-97-51.6-185.5-110.8-257.2c-10.2-12.4-21-24.3-32.4-35.6C73.7,363.9,38.5,336.8,0,314.7v4.4v0c28.1,16.3,54.4,35.3,78.7,56.6
			c8.1,7.1,15.9,14.5,23.5,22.1c2.8,2.8,5.6,5.7,8.3,8.5c1.1,1.2,2.2,2.4,3.3,3.6c1.6,1.7,3.2,3.4,4.8,5.2c1.1,1.3,2.3,2.5,3.4,3.8
			c1.5,1.7,3,3.4,4.5,5.1c1.1,1.3,2.3,2.7,3.4,4c1.4,1.7,2.9,3.4,4.3,5.1c1.1,1.4,2.2,2.8,3.4,4.2c1.4,1.7,2.8,3.4,4.1,5.1
			c1.1,1.4,2.2,2.8,3.3,4.2c1.3,1.7,2.7,3.5,4,5.2c1.2,1.6,2.3,3.1,3.4,4.7c1.2,1.6,2.4,3.3,3.6,4.9c1.2,1.6,2.3,3.3,3.4,4.9
			c1.1,1.6,2.3,3.3,3.4,4.9c1.1,1.6,2.1,3.3,3.2,4.9c1.1,1.7,2.3,3.4,3.4,5.1c1,1.6,2.1,3.3,3.1,4.9c1.1,1.7,2.2,3.5,3.3,5.2
			c1,1.7,2,3.4,3,5.1c1,1.7,2.1,3.5,3.1,5.2c1,1.7,2,3.5,2.9,5.2c1,1.8,2,3.5,2.9,5.3c1,1.8,1.9,3.6,2.8,5.3
			c0.9,1.8,1.9,3.5,2.8,5.3c0.9,1.8,1.8,3.6,2.7,5.5c0.9,1.8,1.8,3.5,2.6,5.3c0.9,1.8,1.7,3.7,2.6,5.5c0.8,1.8,1.7,3.6,2.5,5.4
			c0.8,1.8,1.6,3.7,2.4,5.6c0.8,1.8,1.6,3.7,2.4,5.5c0.8,1.9,1.5,3.8,2.3,5.6c0.8,1.9,1.5,3.7,2.3,5.6c0.7,1.9,1.4,3.8,2.2,5.7
			c0.7,1.9,1.5,3.8,2.2,5.7c0.7,1.9,1.4,3.9,2.1,5.8c0.7,1.9,1.4,3.8,2,5.7c0.7,1.9,1.3,3.9,1.9,5.9c0.6,1.9,1.3,3.8,1.9,5.7
			c0.6,2,1.2,3.9,1.8,5.9c0.6,1.9,1.2,3.9,1.7,5.8c0.6,2,1.1,4,1.6,6c0.5,2,1.1,3.9,1.6,5.9c0.5,2,1,4,1.5,6c0.5,2,1,4,1.5,6
			c0.5,2,0.9,4,1.3,6c0.4,2,0.9,4.1,1.3,6.1c0.4,2,0.8,4,1.2,6c0.4,2.1,0.8,4.1,1.2,6.2c0.4,2,0.7,4.1,1,6.1c0.3,2.1,0.7,4.1,1,6.2
			c0.3,2.1,0.6,4.1,0.9,6.2c0.3,2.1,0.6,4.1,0.9,6.2c0.3,2,0.5,4.1,0.7,6.2c0.2,2.1,0.5,4.2,0.7,6.3c0.2,2,0.4,4.1,0.6,6.1
			c0.2,2.1,0.4,4.3,0.6,6.4c0.2,2,0.3,4.1,0.4,6.1c0.1,2.2,0.3,4.3,0.4,6.5c0.1,2,0.2,4.1,0.3,6.2c0.1,2.2,0.2,4.4,0.3,6.6
			c0.1,2.1,0.1,4.1,0.1,6.2c0,1.9,0.1,3.8,0.1,5.7H0v3.8h188.3C120.4,760.2,56.7,782.1,0,814.7v0v4.4v0c8.5-5,17.2-9.6,26.1-14.1
			c0.6-0.3,1.2-0.6,1.9-1c3.7-1.8,7.4-3.6,11.2-5.4c1.1-0.5,2.1-1,3.2-1.5c3.6-1.7,7.3-3.2,10.9-4.8c1.2-0.5,2.4-1.1,3.7-1.6
			c3.6-1.5,7.3-3,11-4.4c1.3-0.5,2.6-1,3.8-1.5c3.6-1.4,7.3-2.7,11-4c1.4-0.5,2.7-1,4.1-1.5c3.7-1.3,7.4-2.5,11.1-3.6
			c1.4-0.5,2.8-0.9,4.2-1.4c3.7-1.1,7.4-2.2,11.1-3.3c1.5-0.4,2.9-0.9,4.4-1.3c3.7-1,7.4-1.9,11.2-2.9c1.5-0.4,3-0.8,4.6-1.2
			c3.7-0.9,7.4-1.7,11.2-2.5c1.6-0.3,3.2-0.7,4.8-1.1c3.7-0.8,7.5-1.4,11.2-2.1c1.6-0.3,3.3-0.6,4.9-0.9c3.7-0.6,7.5-1.2,11.2-1.7
			c1.7-0.3,3.4-0.5,5.1-0.8c3.7-0.5,7.5-0.9,11.2-1.4c1.8-0.2,3.5-0.4,5.3-0.6c3.7-0.4,7.4-0.7,11.1-1c1.8-0.1,3.7-0.3,5.5-0.5
			c3.7-0.3,7.3-0.4,11-0.6c1.9-0.1,3.8-0.2,5.8-0.3c3.6-0.1,7.3-0.2,10.9-0.2c1.8,0,3.6-0.1,5.4-0.1v496.1H0v3.8h248.1v436
			c-12-97-51.6-185.5-110.8-257.2c-10.2-12.4-21-24.3-32.4-35.6c-31.2-31.2-66.4-58.3-104.9-80.4v4.4v0
			c28.1,16.3,54.4,35.3,78.7,56.6c8.1,7.1,15.9,14.5,23.5,22.1c2.8,2.8,5.6,5.7,8.3,8.5c1.1,1.2,2.2,2.4,3.3,3.6
			c1.6,1.7,3.2,3.4,4.8,5.2c1.1,1.3,2.3,2.5,3.4,3.8c1.5,1.7,3,3.4,4.5,5.1c1.1,1.3,2.3,2.7,3.4,4c1.4,1.7,2.9,3.4,4.3,5.1
			c1.1,1.4,2.2,2.8,3.4,4.2c1.4,1.7,2.8,3.4,4.1,5.1c1.1,1.4,2.2,2.8,3.3,4.2c1.3,1.7,2.7,3.5,4,5.2c1.2,1.6,2.3,3.1,3.4,4.7
			c1.2,1.6,2.4,3.3,3.6,4.9c1.2,1.6,2.3,3.3,3.4,4.9c1.1,1.6,2.3,3.3,3.4,4.9c1.1,1.6,2.1,3.3,3.2,4.9c1.1,1.7,2.3,3.4,3.4,5.1
			c1,1.6,2.1,3.3,3.1,4.9c1.1,1.7,2.2,3.5,3.3,5.2c1,1.7,2,3.4,3,5.1c1,1.7,2.1,3.5,3.1,5.2c1,1.7,2,3.5,2.9,5.2
			c1,1.8,2,3.5,2.9,5.3c1,1.8,1.9,3.6,2.8,5.3c0.9,1.8,1.9,3.5,2.8,5.3c0.9,1.8,1.8,3.6,2.7,5.5c0.9,1.8,1.8,3.5,2.6,5.3
			c0.9,1.8,1.7,3.7,2.6,5.5c0.8,1.8,1.7,3.6,2.5,5.4c0.8,1.9,1.6,3.7,2.5,5.6c0.8,1.8,1.6,3.6,2.4,5.5c0.8,1.9,1.5,3.8,2.3,5.7
			c0.8,1.9,1.5,3.7,2.3,5.6c0.7,1.9,1.4,3.8,2.2,5.7c0.7,1.9,1.5,3.8,2.2,5.7c0.7,1.9,1.4,3.9,2.1,5.8c0.7,1.9,1.4,3.8,2,5.7
			c0.7,1.9,1.3,3.9,1.9,5.9c0.6,1.9,1.3,3.8,1.9,5.7c0.6,2,1.2,3.9,1.8,5.9c0.6,1.9,1.2,3.9,1.7,5.8c0.6,2,1.1,4,1.6,6
			c0.5,1.9,1.1,3.9,1.6,5.8c0.5,2,1,4,1.5,6c0.5,2,1,4,1.5,6c0.5,2,0.9,4,1.3,6c0.4,2,0.9,4,1.3,6.1c0.4,2,0.8,4,1.2,6
			c0.4,2,0.8,4.1,1.2,6.1c0.4,2,0.7,4.1,1,6.1c0.3,2,0.7,4.1,1,6.1c0.3,2.1,0.6,4.1,0.9,6.2c0.3,2.1,0.6,4.1,0.9,6.2
			c0.3,2,0.5,4.1,0.7,6.2c0.2,2.1,0.5,4.2,0.7,6.3c0.2,2,0.4,4.1,0.6,6.1c0.2,2.1,0.4,4.3,0.6,6.4c0.2,2,0.3,4.1,0.4,6.1
			c0.1,2.2,0.3,4.3,0.4,6.5c0.1,2.1,0.2,4.1,0.3,6.2c0.1,2.2,0.2,4.4,0.3,6.6c0.1,2.1,0.1,4.1,0.1,6.2c0,1.9,0.1,3.8,0.1,5.7H0v3.8
			h188.3c-67.9,8.3-131.6,30.1-188.3,62.8v0v4.4v0c8.5-5,17.2-9.6,26.1-14.1c0.6-0.3,1.2-0.6,1.9-1c3.7-1.8,7.4-3.6,11.2-5.4
			c1.1-0.5,2.1-1,3.2-1.5c3.6-1.7,7.3-3.2,10.9-4.8c1.2-0.5,2.4-1.1,3.7-1.6c3.7-1.6,7.5-3,11.2-4.5c1.2-0.5,2.4-1,3.6-1.5
			c3.7-1.4,7.4-2.7,11.1-4c1.3-0.5,2.7-1,4-1.5c3.7-1.3,7.4-2.5,11.1-3.6c1.4-0.5,2.8-0.9,4.2-1.4c3.7-1.2,7.5-2.2,11.3-3.3
			c1.4-0.4,2.8-0.8,4.3-1.2c3.7-1,7.5-2,11.2-2.9c1.5-0.4,3-0.8,4.5-1.2c3.7-0.9,7.4-1.7,11.2-2.5c1.6-0.3,3.2-0.7,4.8-1.1
			c3.7-0.8,7.5-1.4,11.3-2.1c1.6-0.3,3.2-0.6,4.8-0.9c3.7-0.6,7.5-1.2,11.2-1.7c1.7-0.2,3.4-0.5,5.1-0.8c3.7-0.5,7.5-0.9,11.2-1.4
			c1.8-0.2,3.5-0.4,5.3-0.6c3.7-0.4,7.4-0.7,11.1-1c1.8-0.1,3.7-0.3,5.5-0.5c3.7-0.3,7.3-0.4,11-0.6c1.9-0.1,3.8-0.2,5.8-0.3
			c3.6-0.1,7.3-0.2,10.9-0.2c1.8,0,3.6-0.1,5.4-0.1V2000h3.8v-188.3c8.3,67.9,30.1,131.6,62.8,188.3h0h4.4h0
			c-2.7-4.6-5.3-9.2-7.8-13.9c-0.3-0.6-0.6-1.1-0.9-1.7c-2.2-4.1-4.4-8.3-6.5-12.4c-0.6-1.3-1.2-2.6-1.8-3.8
			c-1.7-3.5-3.4-7-5.1-10.6c-0.8-1.7-1.5-3.5-2.3-5.2c-1.4-3.1-2.8-6.3-4.1-9.4c-0.9-2-1.6-4.1-2.5-6.1c-1.2-2.9-2.4-5.8-3.5-8.7
			c-0.9-2.2-1.6-4.5-2.5-6.8c-1-2.8-2.1-5.5-3-8.3c-0.8-2.3-1.6-4.7-2.3-7.1c-0.9-2.7-1.8-5.5-2.7-8.2c-0.8-2.5-1.5-5-2.2-7.5
			c-0.8-2.7-1.6-5.4-2.4-8.1c-0.7-2.6-1.3-5.2-2-7.8c-0.7-2.7-1.4-5.3-2-8c-0.6-2.7-1.2-5.4-1.8-8.1c-0.6-2.6-1.2-5.2-1.7-7.9
			c-0.6-2.7-1-5.5-1.6-8.2c-0.5-2.6-1-5.3-1.5-7.9c-0.5-2.8-0.9-5.6-1.3-8.3c-0.4-2.7-0.8-5.3-1.2-8c-0.4-2.8-0.7-5.6-1-8.4
			c-0.3-2.7-0.7-5.4-0.9-8.1c-0.3-2.8-0.5-5.6-0.7-8.5c-0.2-2.7-0.5-5.5-0.7-8.2c-0.2-2.8-0.3-5.7-0.5-8.5c-0.1-2.8-0.3-5.5-0.4-8.3
			c-0.1-2.9-0.1-5.7-0.2-8.6c0-2.5-0.1-5-0.1-7.4h496.1V2000h3.8v-248.1h436c-113.8,14-215.8,66.1-292.8,143.2
			c-16.5,16.5-31.7,34.1-45.8,52.7c-12.6,16.6-24.2,34.1-34.6,52.2h0h4.4h0c14.4-24.8,31-48.2,49.3-70c9.3-11.1,19.1-21.9,29.4-32.2
			c2.8-2.8,5.6-5.6,8.5-8.3c1.6-1.5,3.2-3,4.8-4.4c1.3-1.2,2.6-2.5,4-3.7c1.6-1.5,3.3-2.9,5-4.4c1.3-1.2,2.6-2.4,4-3.5
			c1.7-1.4,3.3-2.8,5-4.2c1.4-1.2,2.7-2.3,4.1-3.5c1.8-1.5,3.5-2.9,5.3-4.3c1.3-1.1,2.6-2.1,4-3.2c1.9-1.5,3.8-2.9,5.7-4.4
			c1.3-1,2.5-1.9,3.8-2.9c2-1.5,4.1-3,6.1-4.5c1.2-0.8,2.3-1.7,3.5-2.5c2.1-1.5,4.3-3,6.4-4.5c1.1-0.8,2.3-1.6,3.4-2.4
			c2.2-1.5,4.4-2.9,6.6-4.4c1.1-0.7,2.2-1.5,3.4-2.2c2.3-1.5,4.6-2.9,6.8-4.3c1.1-0.7,2.2-1.4,3.3-2.1c2.4-1.4,4.8-2.8,7.2-4.3
			c1-0.6,2.1-1.2,3.1-1.8c2.4-1.4,4.9-2.7,7.3-4.1c1.1-0.6,2.1-1.2,3.1-1.8c2.5-1.4,5.1-2.7,7.6-4c1-0.5,2-1.1,3-1.6
			c2.6-1.3,5.2-2.6,7.8-3.9c1-0.5,2-1,3-1.5c2.7-1.3,5.3-2.5,8-3.8c1-0.4,1.9-0.9,2.9-1.3c2.7-1.2,5.5-2.4,8.2-3.6
			c0.9-0.4,1.9-0.8,2.8-1.2c2.7-1.2,5.5-2.3,8.2-3.4c1-0.4,2-0.8,3-1.2c2.8-1.1,5.6-2.2,8.4-3.2c1-0.4,1.9-0.7,2.9-1.1
			c2.9-1,5.7-2.1,8.6-3c1-0.3,1.9-0.7,2.9-1c2.9-1,5.8-1.9,8.7-2.8c1-0.3,1.9-0.6,2.9-0.9c2.9-0.9,5.9-1.8,8.8-2.6
			c1-0.3,1.9-0.6,2.9-0.9c2.9-0.8,5.9-1.6,8.9-2.4c1-0.3,2-0.5,3-0.8c3-0.8,5.9-1.5,8.9-2.2c1-0.2,2-0.5,3-0.7c3-0.7,6-1.4,9.1-2
			c1-0.2,2-0.4,3-0.6c3-0.6,6.1-1.2,9.2-1.8c1-0.2,2-0.4,3-0.6c3-0.6,6.1-1.1,9.2-1.5c1-0.2,2.1-0.4,3.1-0.5
			c3.1-0.5,6.1-0.9,9.2-1.3c1-0.1,2.1-0.3,3.1-0.4c3.1-0.4,6.2-0.7,9.3-1.1c1.1-0.1,2.1-0.3,3.2-0.4c3.1-0.3,6.1-0.6,9.2-0.8
			c1.1-0.1,2.2-0.2,3.4-0.3c3-0.2,6.1-0.4,9.2-0.6c1.2-0.1,2.3-0.2,3.5-0.2c3-0.2,6.1-0.3,9.1-0.4c1.2,0,2.4-0.1,3.6-0.1
			c3-0.1,6-0.1,9.1-0.1c1.1,0,2.1,0,3.2,0V2000h3.8v-188.3c8.3,67.9,30.1,131.6,62.8,188.3h0h4.4h0c-2.7-4.6-5.3-9.2-7.8-13.9
			c-0.2-0.3-0.3-0.7-0.5-1c-2.3-4.3-4.6-8.7-6.8-13.1c-0.6-1.2-1.2-2.5-1.8-3.7c-1.7-3.6-3.5-7.1-5.1-10.7c-0.8-1.6-1.4-3.3-2.2-5
			c-1.4-3.2-2.9-6.4-4.2-9.7c-0.8-2-1.6-4-2.4-6c-1.2-3-2.4-5.9-3.6-8.9c-0.8-2.2-1.6-4.4-2.4-6.5c-1-2.9-2.1-5.7-3.1-8.6
			c-0.8-2.3-1.5-4.7-2.3-7c-0.9-2.8-1.9-5.5-2.7-8.3c-0.8-2.4-1.4-4.9-2.2-7.4c-0.8-2.7-1.6-5.4-2.4-8.2c-0.7-2.5-1.3-5.1-2-7.7
			c-0.7-2.7-1.4-5.4-2.1-8.1c-0.6-2.6-1.2-5.3-1.8-8c-0.6-2.7-1.2-5.3-1.8-8c-0.6-2.7-1-5.4-1.5-8.2c-0.5-2.7-1-5.3-1.5-8
			c-0.5-2.7-0.9-5.5-1.3-8.3c-0.4-2.7-0.9-5.4-1.2-8.1c-0.4-2.8-0.7-5.6-1-8.4c-0.3-2.7-0.7-5.4-1-8.1c-0.3-2.8-0.5-5.6-0.7-8.5
			c-0.2-2.7-0.5-5.5-0.7-8.2c-0.2-2.8-0.3-5.6-0.5-8.5c-0.1-2.8-0.3-5.5-0.4-8.3c-0.1-2.8-0.1-5.7-0.2-8.5c0-2.5-0.1-5-0.1-7.5
			h496.1V2000h3.8v-248.1H2000v-3.8h-248.1v0v-496.1c1.8,0,3.6,0.1,5.4,0.1c3.6,0.1,7.3,0.1,10.9,0.2c1.9,0.1,3.9,0.2,5.8,0.3
			c3.7,0.2,7.4,0.3,11,0.6c1.8,0.1,3.7,0.3,5.5,0.5c3.7,0.3,7.4,0.6,11.1,1c1.8,0.2,3.5,0.4,5.3,0.6c3.7,0.4,7.5,0.8,11.2,1.3
			c1.7,0.2,3.4,0.5,5.2,0.8c3.7,0.5,7.5,1.1,11.2,1.7c1.7,0.3,3.3,0.6,5,0.9c3.7,0.7,7.5,1.3,11.1,2.1c1.6,0.3,3.2,0.7,4.8,1.1
			c3.7,0.8,7.4,1.6,11.1,2.5c1.6,0.4,3.1,0.8,4.7,1.2c3.7,0.9,7.4,1.8,11.1,2.9c1.5,0.4,3,0.9,4.5,1.3c3.7,1,7.4,2.1,11,3.2
			c1.5,0.5,3,1,4.4,1.5c3.6,1.2,7.3,2.3,10.9,3.6c1.5,0.5,2.9,1.1,4.4,1.6c3.6,1.3,7.2,2.6,10.7,3.9c1.4,0.5,2.8,1.1,4.3,1.7
			c3.5,1.4,7.1,2.8,10.6,4.3c1.5,0.6,2.9,1.3,4.4,1.9c3.4,1.5,6.9,3,10.2,4.5c1.4,0.6,2.8,1.3,4.2,2c3.4,1.6,6.8,3.2,10.2,4.9
			c1.2,0.6,2.3,1.2,3.5,1.8c3.6,1.8,7.1,3.6,10.6,5.5c0.2,0.1,0.4,0.2,0.6,0.3c4.4,2.4,8.8,4.9,13.2,7.4v0v-4.4
			c-56.7-32.6-120.4-54.4-188.3-62.8H2000v-3.8h-248.1c0-1.7,0-3.5,0.1-5.2c0-2.2,0-4.5,0.1-6.7c0.1-2,0.2-4,0.2-6.1
			c0.1-2.2,0.2-4.5,0.3-6.7c0.1-2,0.2-4,0.4-6c0.1-2.2,0.3-4.5,0.4-6.7c0.2-2,0.3-3.9,0.5-5.9c0.2-2.2,0.4-4.5,0.6-6.7
			c0.2-1.9,0.4-3.9,0.7-5.8c0.3-2.2,0.5-4.5,0.8-6.7c0.2-1.9,0.5-3.8,0.8-5.7c0.3-2.2,0.6-4.4,1-6.7c0.3-1.9,0.6-3.8,0.9-5.6
			c0.4-2.2,0.7-4.4,1.1-6.6c0.3-1.9,0.7-3.7,1.1-5.6c0.4-2.2,0.8-4.4,1.3-6.6c0.4-1.9,0.8-3.7,1.2-5.6c0.5-2.2,0.9-4.3,1.4-6.5
			c0.4-1.9,0.9-3.7,1.4-5.5c0.5-2.1,1-4.3,1.6-6.4c0.5-1.8,1-3.6,1.5-5.5c0.6-2.1,1.1-4.3,1.7-6.4c0.5-1.8,1.1-3.6,1.6-5.4
			c0.6-2.1,1.2-4.2,1.9-6.3c0.6-1.8,1.2-3.6,1.7-5.4c0.7-2.1,1.3-4.2,2-6.3c0.6-1.8,1.2-3.5,1.8-5.2c0.7-2.1,1.5-4.2,2.2-6.2
			c0.6-1.7,1.3-3.4,2-5.2c0.8-2.1,1.6-4.1,2.4-6.2c0.7-1.7,1.4-3.4,2.1-5.1c0.8-2,1.6-4.1,2.5-6.1c0.7-1.7,1.5-3.4,2.2-5.1
			c0.9-2,1.7-4,2.6-6c0.8-1.7,1.6-3.4,2.4-5c0.9-2,1.8-3.9,2.8-5.9c0.8-1.7,1.6-3.3,2.5-5c1-1.9,1.9-3.9,2.9-5.8
			c0.9-1.7,1.8-3.4,2.7-5c1-1.9,1.9-3.7,3-5.6c0.9-1.7,1.9-3.3,2.8-5c1-1.8,2-3.7,3.1-5.5c1-1.7,2-3.3,2.9-4.9
			c1.1-1.8,2.1-3.6,3.2-5.4c1-1.7,2.1-3.3,3.1-5c1.1-1.7,2.1-3.5,3.2-5.2c1-1.6,2.1-3.2,3.2-4.9c1.1-1.7,2.2-3.4,3.4-5.1
			c1.1-1.6,2.2-3.2,3.3-4.7c1.2-1.7,2.3-3.4,3.5-5.1c1.2-1.7,2.4-3.3,3.6-4.9c1.1-1.6,2.3-3.1,3.4-4.7c1.3-1.8,2.7-3.5,4-5.2
			c1.1-1.4,2.2-2.8,3.3-4.2c1.4-1.7,2.7-3.4,4.1-5.1c1.1-1.4,2.2-2.8,3.4-4.2c1.4-1.7,2.9-3.4,4.3-5.1c1.1-1.3,2.2-2.7,3.4-4
			c1.5-1.7,3-3.4,4.5-5.1c1.1-1.3,2.2-2.6,3.4-3.8c1.6-1.7,3.2-3.4,4.8-5.2c1.1-1.2,2.2-2.4,3.3-3.6c2.7-2.9,5.5-5.7,8.3-8.5
			c30.4-30.4,64.8-56.9,102.2-78.7v0v-4.4v0c-33.7,19.4-64.9,42.5-93,68.9c-4,3.8-8,7.6-11.9,11.5c-11.4,11.4-22.2,23.2-32.4,35.6
			c-0.5,0.6-1,1.3-1.6,2c-2.8,3.4-5.5,6.8-8.2,10.3c-53.8,69.4-89.8,153.4-101,244.9v-436H2000v-3.8h-248.1V251.9
			c1.8,0,3.6,0.1,5.5,0.1c3.6,0.1,7.2,0.1,10.8,0.2c2,0.1,3.9,0.2,5.9,0.3c3.6,0.2,7.3,0.3,10.9,0.6c1.9,0.1,3.8,0.3,5.6,0.5
			c3.7,0.3,7.4,0.6,11,1c1.8,0.2,3.6,0.4,5.4,0.6c3.7,0.4,7.4,0.8,11.1,1.3c1.8,0.2,3.5,0.5,5.2,0.8c3.7,0.5,7.4,1.1,11.1,1.7
			c1.7,0.3,3.3,0.6,5,0.9c3.7,0.7,7.4,1.3,11.1,2.1c1.6,0.3,3.2,0.7,4.8,1.1c3.7,0.8,7.4,1.6,11.1,2.5c1.6,0.4,3.1,0.8,4.6,1.2
			c3.7,0.9,7.4,1.8,11.1,2.9c1.5,0.4,3.1,0.9,4.6,1.3c3.7,1,7.3,2.1,10.9,3.2c1.5,0.5,3.1,1,4.6,1.5c3.6,1.2,7.2,2.3,10.7,3.5
			c1.5,0.5,2.9,1.1,4.4,1.6c3.6,1.3,7.2,2.6,10.7,3.9c1.4,0.5,2.8,1.1,4.2,1.7c3.6,1.4,7.2,2.8,10.7,4.3c1.3,0.6,2.7,1.2,4,1.8
			c3.6,1.5,7.1,3.1,10.6,4.7c1.2,0.6,2.4,1.2,3.7,1.8c3.6,1.7,7.2,3.4,10.7,5.1c0.9,0.4,1.7,0.9,2.6,1.4c8.6,4.3,17,8.9,25.3,13.7v0
			v-4.4c-56.7-32.6-120.4-54.4-188.3-62.8H2000v-3.8h-248.1C1752,245.6,1752,243.1,1752.1,240.7z M251.9,251.9h496.2
			c0,1.9,0,3.8-0.1,5.7c0,2.1,0,4.1-0.1,6.2c-0.1,2.2-0.2,4.4-0.3,6.6c-0.1,2.1-0.1,4.1-0.3,6.2c-0.1,2.2-0.3,4.3-0.4,6.5
			c-0.1,2-0.3,4.1-0.4,6.1c-0.2,2.2-0.4,4.3-0.6,6.4c-0.2,2-0.4,4.1-0.6,6.1c-0.2,2.1-0.5,4.2-0.7,6.3c-0.2,2.1-0.5,4.1-0.7,6.2
			c-0.3,2.1-0.6,4.1-0.9,6.2c-0.3,2.1-0.6,4.1-0.9,6.2c-0.3,2.1-0.7,4.1-1,6.2c-0.3,2-0.7,4.1-1,6.1c-0.4,2.1-0.8,4.1-1.2,6.2
			c-0.4,2-0.8,4-1.2,6c-0.4,2-0.9,4.1-1.3,6.1c-0.4,2-0.9,4-1.3,6c-0.5,2-1,4-1.5,6c-0.5,2-1,4-1.5,6c-0.5,2-1.1,3.9-1.6,5.9
			c-0.5,2-1.1,4-1.6,5.9c-0.6,2-1.2,3.9-1.8,5.9c-0.6,1.9-1.1,3.9-1.7,5.8c-0.6,2-1.3,3.9-1.9,5.8c-0.6,1.9-1.2,3.8-1.9,5.7
			c-0.7,1.9-1.4,3.8-2,5.8c-0.7,1.9-1.3,3.8-2,5.7c-0.7,1.9-1.4,3.8-2.1,5.6c-0.7,1.9-1.4,3.8-2.2,5.7c-0.7,1.9-1.5,3.7-2.3,5.5
			c-0.8,1.9-1.5,3.8-2.3,5.7c-0.8,1.8-1.6,3.6-2.4,5.4c-0.8,1.9-1.6,3.8-2.5,5.6c-0.8,1.8-1.7,3.7-2.6,5.5c-0.8,1.8-1.7,3.6-2.6,5.4
			c-0.9,1.8-1.8,3.6-2.7,5.5c-0.9,1.8-1.8,3.6-2.7,5.3c-0.9,1.8-1.9,3.6-2.9,5.4c-0.9,1.7-1.8,3.5-2.7,5.2c-1,1.8-2,3.6-3,5.4
			c-0.9,1.7-1.9,3.4-2.8,5.1c-1,1.7-2,3.5-3.1,5.2c-1,1.7-2,3.4-3.1,5.1c-1,1.7-2.1,3.4-3.2,5.1c-1,1.7-2.1,3.4-3.1,5
			c-1.1,1.8-2.3,3.5-3.4,5.2c-1,1.6-2.1,3.2-3.1,4.8c-1.2,1.7-2.4,3.4-3.6,5.2c-1.1,1.6-2.1,3.1-3.2,4.7c-1.2,1.7-2.5,3.4-3.7,5.1
			c-1.1,1.5-2.2,3-3.3,4.6c-1.3,1.8-2.7,3.5-4,5.2c-1.1,1.4-2.2,2.8-3.3,4.2c-1.4,1.7-2.7,3.4-4.1,5.1c-1.1,1.4-2.2,2.8-3.4,4.2
			c-1.4,1.7-2.9,3.4-4.3,5.1c-1.1,1.3-2.2,2.7-3.4,4c-1.6,1.9-3.3,3.7-4.9,5.5c-1,1.1-2,2.3-3,3.4c-1.7,1.9-3.4,3.7-5.2,5.5
			c-1,1.1-2,2.1-3,3.2c-2.7,2.9-5.5,5.7-8.3,8.5c-2.8,2.8-5.7,5.6-8.5,8.3c-1.2,1.2-2.5,2.3-3.8,3.5c-1.7,1.5-3.3,3.1-5,4.6
			c-1.4,1.3-2.9,2.6-4.3,3.9c-1.5,1.4-3,2.7-4.6,4.1c-1.4,1.3-2.9,2.5-4.4,3.7c-1.6,1.3-3.1,2.7-4.7,4c-1.5,1.3-3.1,2.5-4.6,3.7
			c-1.6,1.2-3.1,2.5-4.7,3.7c-1.7,1.3-3.4,2.6-5.1,3.9c-1.4,1.1-2.9,2.2-4.3,3.3c-1.8,1.4-3.7,2.7-5.5,4c-1.4,1-2.7,2-4.1,3
			c-1.9,1.4-3.9,2.7-5.8,4c-1.3,0.9-2.6,1.9-4,2.8c-2.1,1.4-4.1,2.7-6.2,4.1c-1.3,0.8-2.5,1.7-3.8,2.5c-2.1,1.4-4.2,2.7-6.4,4
			c-1.3,0.8-2.5,1.6-3.8,2.4c-2.2,1.4-4.5,2.7-6.7,4c-1.2,0.7-2.4,1.4-3.6,2.1c-2.3,1.3-4.6,2.6-7,3.9c-1.2,0.6-2.3,1.3-3.5,2
			c-2.4,1.3-4.8,2.6-7.3,3.8c-1.1,0.6-2.2,1.2-3.3,1.8c-2.5,1.3-4.9,2.5-7.4,3.7c-1.1,0.6-2.2,1.1-3.4,1.7c-2.5,1.2-5.1,2.4-7.7,3.6
			c-1.1,0.5-2.1,1-3.2,1.5c-2.6,1.2-5.2,2.3-7.8,3.4c-1.1,0.5-2.1,1-3.2,1.4c-2.6,1.1-5.3,2.2-7.9,3.3c-1.1,0.4-2.2,0.9-3.2,1.3
			c-2.7,1.1-5.5,2.1-8.2,3.1c-1,0.4-2.1,0.8-3.1,1.2c-2.8,1-5.6,2-8.4,3c-1,0.4-2,0.7-3.1,1.1c-2.8,1-5.7,1.9-8.5,2.8
			c-1,0.3-2,0.7-3.1,1c-2.9,0.9-5.7,1.7-8.6,2.6c-1,0.3-2.1,0.6-3.1,0.9c-2.9,0.8-5.8,1.6-8.7,2.4c-1,0.3-2,0.6-3.1,0.8
			c-2.9,0.8-5.9,1.5-8.8,2.2c-1,0.3-2.1,0.5-3.1,0.8c-3,0.7-6,1.3-9,2c-1,0.2-2,0.5-3.1,0.7c-3,0.6-6.1,1.2-9.1,1.8
			c-1,0.2-2,0.4-3.1,0.6c-3,0.5-6.1,1-9.1,1.5c-1,0.2-2.1,0.4-3.1,0.5c-3.1,0.5-6.1,0.9-9.2,1.3c-1.1,0.1-2.1,0.3-3.2,0.4
			c-3.1,0.4-6.1,0.7-9.2,1.1c-1.1,0.1-2.2,0.3-3.2,0.4c-3.1,0.3-6.1,0.6-9.2,0.8c-1.1,0.1-2.3,0.2-3.4,0.3c-3,0.2-6.1,0.4-9.2,0.6
			c-1.2,0.1-2.3,0.2-3.5,0.2c-3,0.2-6.1,0.3-9.1,0.4c-1.2,0-2.4,0.1-3.6,0.1c-3,0.1-6,0.1-9.1,0.1c-1.1,0-2.1,0-3.2,0V251.9z
			 M251.9,812.1c13.1,106.2,59.4,202.1,128.2,277.1c4.9,5.3,9.9,10.6,15,15.7c77.1,77.1,179.1,129.2,292.8,143.2h-436V812.1z
			 M302.1,1745.4c-3.1,0.3-6.1,0.6-9.2,0.8c-1.1,0.1-2.3,0.2-3.4,0.3c-3,0.2-6.1,0.4-9.2,0.6c-1.2,0.1-2.3,0.2-3.5,0.2
			c-3,0.2-6.1,0.3-9.1,0.4c-1.2,0-2.4,0.1-3.6,0.1c-3,0.1-6,0.1-9.1,0.1c-1.1,0-2.1,0-3.2,0v-496.2h496.2c0,1.9,0,3.8-0.1,5.7
			c0,2.1,0,4.1-0.1,6.2c-0.1,2.2-0.2,4.4-0.3,6.6c-0.1,2.1-0.1,4.1-0.3,6.2c-0.1,2.2-0.3,4.3-0.4,6.5c-0.1,2-0.3,4.1-0.4,6.1
			c-0.2,2.2-0.4,4.3-0.6,6.4c-0.2,2-0.4,4.1-0.6,6.1c-0.2,2.1-0.5,4.2-0.7,6.3c-0.2,2.1-0.5,4.1-0.7,6.2c-0.3,2.1-0.6,4.1-0.9,6.2
			c-0.3,2.1-0.6,4.1-0.9,6.2c-0.3,2.1-0.7,4.1-1,6.2c-0.3,2-0.7,4.1-1,6.1c-0.4,2.1-0.8,4.1-1.2,6.2c-0.4,2-0.8,4-1.2,6
			c-0.4,2-0.9,4.1-1.3,6.1c-0.4,2-0.9,4-1.3,6c-0.5,2-1,4-1.5,6c-0.5,2-1,4-1.5,6c-0.5,2-1.1,3.9-1.6,5.9c-0.5,2-1.1,4-1.6,5.9
			c-0.6,2-1.2,3.9-1.8,5.9c-0.6,1.9-1.1,3.9-1.7,5.8c-0.6,2-1.3,3.9-1.9,5.8c-0.6,1.9-1.2,3.8-1.9,5.7c-0.7,1.9-1.4,3.8-2,5.8
			c-0.7,1.9-1.3,3.8-2,5.7c-0.7,1.9-1.4,3.8-2.1,5.6c-0.7,1.9-1.4,3.8-2.2,5.7c-0.7,1.9-1.5,3.7-2.3,5.5c-0.8,1.9-1.5,3.8-2.3,5.7
			c-0.8,1.8-1.6,3.6-2.4,5.4c-0.8,1.9-1.6,3.8-2.5,5.6c-0.8,1.8-1.7,3.7-2.6,5.5c-0.8,1.8-1.7,3.6-2.6,5.4c-0.9,1.8-1.8,3.6-2.7,5.5
			c-0.9,1.8-1.8,3.6-2.7,5.3c-0.9,1.8-1.9,3.6-2.9,5.4c-0.9,1.7-1.8,3.5-2.7,5.2c-1,1.8-2,3.6-3,5.4c-0.9,1.7-1.9,3.4-2.8,5.1
			c-1,1.7-2,3.5-3.1,5.2c-1,1.7-2,3.4-3.1,5.1c-1,1.7-2.1,3.4-3.2,5.1c-1,1.7-2.1,3.4-3.1,5c-1.1,1.8-2.3,3.5-3.4,5.2
			c-1,1.6-2.1,3.2-3.1,4.8c-1.2,1.7-2.4,3.4-3.6,5.2c-1.1,1.6-2.1,3.1-3.2,4.7c-1.2,1.7-2.5,3.4-3.7,5.1c-1.1,1.5-2.2,3-3.3,4.6
			c-1.3,1.8-2.7,3.5-4,5.2c-1.1,1.4-2.2,2.8-3.3,4.2c-1.4,1.7-2.7,3.4-4.1,5.1c-1.1,1.4-2.2,2.8-3.4,4.2c-1.4,1.7-2.9,3.4-4.3,5.1
			c-1.1,1.3-2.2,2.7-3.4,4c-1.6,1.9-3.3,3.7-4.9,5.5c-1,1.1-2,2.3-3,3.4c-1.7,1.9-3.4,3.7-5.2,5.5c-1,1.1-2,2.1-3,3.2
			c-2.7,2.9-5.5,5.7-8.3,8.5c-2.8,2.8-5.7,5.6-8.5,8.3c-1.2,1.2-2.5,2.3-3.8,3.5c-1.7,1.5-3.3,3.1-5,4.6c-1.4,1.3-2.9,2.6-4.3,3.9
			c-1.5,1.4-3,2.7-4.6,4.1c-1.4,1.3-2.9,2.5-4.4,3.7c-1.6,1.3-3.1,2.7-4.7,4c-1.5,1.3-3.1,2.5-4.6,3.7c-1.6,1.2-3.1,2.5-4.7,3.7
			c-1.7,1.3-3.4,2.6-5.1,3.9c-1.4,1.1-2.9,2.2-4.3,3.3c-1.8,1.4-3.7,2.7-5.5,4c-1.4,1-2.7,2-4.1,3c-1.9,1.4-3.9,2.7-5.8,4
			c-1.3,0.9-2.6,1.9-4,2.8c-2.1,1.4-4.1,2.7-6.2,4.1c-1.3,0.8-2.5,1.7-3.8,2.5c-2.1,1.4-4.2,2.7-6.4,4c-1.3,0.8-2.5,1.6-3.8,2.4
			c-2.2,1.4-4.5,2.7-6.7,4c-1.2,0.7-2.4,1.4-3.6,2.1c-2.3,1.3-4.6,2.6-7,3.9c-1.2,0.6-2.3,1.3-3.5,2c-2.4,1.3-4.8,2.6-7.3,3.8
			c-1.1,0.6-2.2,1.2-3.3,1.8c-2.5,1.3-4.9,2.5-7.4,3.7c-1.1,0.6-2.2,1.1-3.4,1.7c-2.5,1.2-5.1,2.4-7.7,3.6c-1.1,0.5-2.1,1-3.2,1.5
			c-2.6,1.2-5.2,2.3-7.8,3.4c-1.1,0.5-2.1,1-3.2,1.4c-2.6,1.1-5.3,2.2-7.9,3.3c-1.1,0.4-2.2,0.9-3.2,1.3c-2.7,1.1-5.5,2.1-8.2,3.1
			c-1,0.4-2.1,0.8-3.1,1.2c-2.8,1-5.6,2-8.4,3c-1,0.4-2,0.7-3.1,1.1c-2.8,1-5.7,1.9-8.5,2.8c-1,0.3-2,0.7-3.1,1
			c-2.9,0.9-5.7,1.7-8.6,2.6c-1,0.3-2.1,0.6-3.1,0.9c-2.9,0.8-5.8,1.6-8.7,2.4c-1,0.3-2,0.6-3.1,0.8c-2.9,0.8-5.9,1.5-8.8,2.2
			c-1,0.3-2.1,0.5-3.1,0.8c-3,0.7-6,1.3-9,2c-1,0.2-2,0.5-3.1,0.7c-3,0.6-6.1,1.2-9.1,1.8c-1,0.2-2,0.4-3.1,0.6
			c-3,0.5-6.1,1-9.1,1.5c-1,0.2-2.1,0.4-3.1,0.5c-3.1,0.5-6.1,0.9-9.2,1.3c-1.1,0.1-2.1,0.3-3.2,0.4c-3.1,0.4-6.1,0.7-9.2,1.1
			C304.3,1745.1,303.2,1745.3,302.1,1745.4z M748.1,1748.1h-436c113.8-14,215.8-66.1,292.8-143.2c3.1-3.1,6.1-6.2,9.1-9.3
			c4.4-4.6,8.6-9.3,12.8-14.1c65-73.8,108.6-166.8,121.3-269.4V1748.1z M748.1,1248.1c-1.1,0-2.2,0-3.3,0c-3,0-6-0.1-9-0.1
			c-1.2,0-2.4-0.1-3.7-0.1c-3-0.1-6.1-0.2-9.1-0.4c-1.2-0.1-2.4-0.2-3.6-0.2c-3-0.2-6-0.4-9.1-0.6c-1.2-0.1-2.3-0.2-3.5-0.3
			c-3-0.3-6.1-0.5-9.1-0.8c-1.1-0.1-2.2-0.3-3.3-0.4c-3.1-0.3-6.1-0.7-9.1-1.1c-1.1-0.1-2.2-0.3-3.2-0.5c-3.1-0.4-6.1-0.8-9.2-1.3
			c-1-0.2-2.1-0.3-3.1-0.5c-3.1-0.5-6.1-1-9.2-1.5c-1-0.2-2.1-0.4-3.1-0.6c-3-0.6-6-1.1-9.1-1.8c-1-0.2-2.1-0.5-3.1-0.7
			c-3-0.6-6-1.3-9-2c-1-0.2-2-0.5-3-0.7c-3-0.7-6-1.4-8.9-2.2c-1-0.3-2-0.5-2.9-0.8c-3-0.8-5.9-1.6-8.9-2.4c-1-0.3-2-0.6-2.9-0.9
			c-2.9-0.9-5.9-1.7-8.8-2.6c-1-0.3-1.9-0.6-2.9-0.9c-2.9-0.9-5.8-1.9-8.7-2.8c-1-0.3-1.9-0.7-2.9-1c-2.9-1-5.7-2-8.6-3
			c-1-0.4-2-0.8-3-1.1c-2.8-1-5.6-2.1-8.3-3.2c-1-0.4-2-0.8-3-1.2c-2.8-1.1-5.5-2.2-8.2-3.4c-1-0.4-1.9-0.8-2.9-1.3
			c-2.7-1.2-5.5-2.4-8.2-3.6c-1-0.5-2-1-3.1-1.4c-2.6-1.2-5.2-2.4-7.8-3.7c-1-0.5-2-1-3.1-1.5c-2.6-1.3-5.2-2.5-7.7-3.8
			c-1-0.5-2.1-1.1-3.1-1.6c-2.5-1.3-5-2.6-7.5-4c-1.1-0.6-2.1-1.2-3.2-1.8c-2.4-1.3-4.9-2.7-7.3-4.1c-1.1-0.6-2.1-1.2-3.1-1.9
			c-2.4-1.4-4.8-2.8-7.2-4.2c-1.1-0.7-2.1-1.3-3.2-2c-2.3-1.4-4.6-2.9-6.9-4.3c-1.2-0.8-2.4-1.6-3.6-2.4c-2.1-1.4-4.3-2.8-6.4-4.2
			c-1.2-0.8-2.4-1.6-3.5-2.4c-2.1-1.4-4.2-2.9-6.3-4.4c-1.2-0.8-2.3-1.7-3.5-2.5c-2.1-1.5-4.1-3-6.2-4.5c-1.3-1-2.5-1.9-3.8-2.9
			c-1.9-1.4-3.8-2.9-5.7-4.4c-1.3-1-2.5-2-3.8-3c-1.8-1.5-3.7-2.9-5.5-4.4c-1.3-1.1-2.5-2.1-3.8-3.2c-1.8-1.5-3.5-3-5.3-4.5
			c-1.4-1.3-2.9-2.5-4.3-3.8c-1.5-1.4-3.1-2.7-4.6-4.1c-1.5-1.4-3-2.8-4.5-4.2c-1.4-1.3-2.8-2.6-4.2-4c-2.9-2.7-5.7-5.5-8.5-8.3
			c-2.8-2.8-5.6-5.7-8.3-8.5c-1.1-1.2-2.2-2.4-3.3-3.6c-1.6-1.7-3.2-3.4-4.8-5.2c-1.1-1.3-2.3-2.5-3.4-3.8c-1.5-1.7-3-3.4-4.5-5.1
			c-1.1-1.3-2.3-2.7-3.4-4c-1.4-1.7-2.9-3.4-4.3-5.1c-1.1-1.4-2.2-2.8-3.4-4.2c-1.4-1.7-2.8-3.4-4.1-5.1c-1.1-1.4-2.2-2.8-3.3-4.2
			c-1.3-1.7-2.7-3.5-4-5.2c-1.2-1.6-2.3-3.1-3.4-4.7c-1.2-1.6-2.4-3.3-3.6-4.9c-1.2-1.7-2.4-3.4-3.5-5.1c-1.1-1.6-2.2-3.2-3.3-4.7
			c-1.1-1.7-2.3-3.4-3.4-5.1c-1.1-1.6-2.2-3.2-3.2-4.9c-1.1-1.7-2.2-3.4-3.2-5.2c-1-1.7-2.1-3.3-3.1-5c-1.1-1.8-2.1-3.5-3.1-5.3
			c-1-1.7-2-3.3-3-5c-1-1.8-2-3.6-3-5.4c-0.9-1.7-1.9-3.4-2.8-5.1c-1-1.9-2-3.8-3-5.6c-0.9-1.7-1.8-3.3-2.6-5
			c-1-1.9-1.9-3.9-2.9-5.8c-0.8-1.6-1.7-3.3-2.5-4.9c-0.9-1.9-1.8-3.9-2.8-5.9c-0.8-1.7-1.6-3.4-2.4-5c-0.9-2-1.7-4-2.6-5.9
			c-0.7-1.7-1.5-3.4-2.2-5.1c-0.8-2-1.7-4-2.5-6c-0.7-1.7-1.4-3.4-2.1-5.2c-0.8-2-1.6-4.1-2.3-6.1c-0.7-1.7-1.3-3.5-2-5.2
			c-0.8-2.1-1.5-4.2-2.2-6.2c-0.6-1.7-1.2-3.5-1.8-5.2c-0.7-2.1-1.4-4.2-2.1-6.3c-0.6-1.8-1.2-3.5-1.7-5.3c-0.7-2.1-1.3-4.2-1.9-6.3
			c-0.5-1.8-1.1-3.6-1.6-5.4c-0.6-2.1-1.2-4.3-1.8-6.4c-0.5-1.8-1-3.6-1.5-5.4c-0.6-2.1-1.1-4.3-1.6-6.5c-0.4-1.8-0.9-3.7-1.3-5.5
			c-0.5-2.2-1-4.3-1.4-6.5c-0.4-1.9-0.8-3.7-1.2-5.6c-0.5-2.2-0.9-4.4-1.3-6.6c-0.4-1.9-0.7-3.7-1.1-5.6c-0.4-2.2-0.8-4.4-1.1-6.7
			c-0.3-1.9-0.6-3.7-0.9-5.6c-0.3-2.2-0.6-4.4-1-6.7c-0.3-1.9-0.6-3.8-0.8-5.7c-0.3-2.2-0.5-4.5-0.8-6.7c-0.2-1.9-0.5-3.8-0.7-5.8
			c-0.2-2.2-0.4-4.5-0.6-6.7c-0.2-2-0.4-3.9-0.5-5.9c-0.2-2.2-0.3-4.5-0.4-6.7c-0.1-2-0.3-4-0.4-6c-0.1-2.2-0.2-4.5-0.3-6.7
			c-0.1-2-0.2-4-0.2-6.1c-0.1-2.2-0.1-4.5-0.1-6.7c0-1.7-0.1-3.5-0.1-5.2h496.2V1248.1z M748.1,748.1h-436
			c113.8-14,215.8-66.1,292.8-143.2c3.1-3.1,6.1-6.2,9.1-9.3c4.4-4.6,8.6-9.3,12.8-14.1c65-73.8,108.6-166.8,121.3-269.4V748.1z
			 M751.9,251.9c1.1,0,2.2,0,3.3,0c3,0,6,0.1,9,0.1c1.2,0,2.4,0.1,3.7,0.1c3,0.1,6.1,0.2,9.1,0.4c1.2,0.1,2.4,0.2,3.6,0.2
			c3,0.2,6,0.4,9.1,0.6c1.2,0.1,2.3,0.2,3.5,0.3c3,0.3,6.1,0.5,9.1,0.8c1.1,0.1,2.2,0.3,3.3,0.4c3,0.3,6.1,0.7,9.1,1.1
			c1.1,0.1,2.2,0.3,3.3,0.5c3,0.4,6.1,0.8,9.1,1.3c1,0.2,2.1,0.4,3.1,0.5c3,0.5,6.1,1,9.1,1.5c1.1,0.2,2.1,0.4,3.2,0.6
			c3,0.6,6,1.1,9,1.8c1,0.2,2.1,0.5,3.1,0.7c3,0.6,6,1.3,8.9,2c1,0.2,2.1,0.5,3.1,0.8c3,0.7,5.9,1.4,8.8,2.2c1,0.3,2,0.6,3,0.8
			c2.9,0.8,5.9,1.6,8.8,2.4c1,0.3,2,0.6,3.1,0.9c2.9,0.8,5.8,1.7,8.6,2.6c1,0.3,2,0.7,3.1,1c2.9,0.9,5.7,1.8,8.5,2.8
			c1,0.3,2,0.7,3.1,1.1c2.8,1,5.6,1.9,8.4,3c1.1,0.4,2.1,0.8,3.2,1.2c2.7,1,5.4,2,8.1,3.1c1.1,0.4,2.2,0.9,3.2,1.3
			c2.7,1.1,5.3,2.1,8,3.3c1.1,0.5,2.2,1,3.3,1.4c2.6,1.1,5.2,2.3,7.8,3.4c1.1,0.5,2.2,1,3.3,1.6c2.5,1.2,5.1,2.3,7.6,3.6
			c1.1,0.5,2.2,1.1,3.4,1.7c2.5,1.2,5,2.4,7.4,3.7c1.2,0.6,2.3,1.2,3.5,1.8c2.4,1.2,4.8,2.5,7.1,3.8c1.2,0.6,2.3,1.3,3.5,2
			c2.3,1.3,4.6,2.6,6.9,3.9c1.2,0.7,2.4,1.4,3.5,2.1c2.3,1.3,4.5,2.7,6.8,4c1.2,0.8,2.4,1.5,3.7,2.3c2.2,1.3,4.3,2.7,6.5,4
			c1.4,0.9,2.7,1.8,4,2.7c2,1.3,4,2.6,5.9,3.9c1.3,0.9,2.6,1.8,3.9,2.7c2,1.4,4,2.7,5.9,4.1c1.3,0.9,2.6,1.9,4,2.9
			c1.9,1.4,3.8,2.7,5.7,4.1c1.5,1.1,2.9,2.2,4.3,3.3c1.7,1.3,3.4,2.6,5.1,3.9c1.4,1.1,2.9,2.3,4.3,3.5c1.7,1.3,3.3,2.7,5,4
			c1.5,1.2,3,2.5,4.5,3.8c1.5,1.3,3.1,2.6,4.6,3.9c1.8,1.5,3.5,3.1,5.2,4.7c1.2,1.1,2.5,2.2,3.7,3.3c1.8,1.7,3.6,3.3,5.4,5
			c1.1,1,2.2,2.1,3.3,3.1c2.9,2.7,5.7,5.5,8.5,8.3c2.8,2.8,5.6,5.7,8.3,8.5c1,1.1,2,2.1,3,3.2c1.7,1.8,3.5,3.7,5.2,5.5
			c1,1.1,2,2.3,3,3.4c1.6,1.8,3.3,3.7,4.9,5.5c1.1,1.3,2.3,2.7,3.4,4c1.4,1.7,2.9,3.4,4.3,5.1c1.1,1.4,2.2,2.8,3.4,4.2
			c1.4,1.7,2.8,3.4,4.1,5.1c1.1,1.4,2.2,2.8,3.3,4.2c1.3,1.7,2.7,3.5,4,5.2c1.1,1.5,2.2,3,3.3,4.6c1.2,1.7,2.5,3.4,3.7,5.1
			c1.1,1.5,2.2,3.1,3.2,4.7c1.2,1.7,2.4,3.4,3.6,5.2c1.1,1.6,2.1,3.2,3.2,4.9c1.1,1.7,2.3,3.4,3.4,5.1c1.1,1.7,2.2,3.4,3.2,5.2
			c1,1.7,2.1,3.3,3.1,5c1,1.7,2,3.4,3,5.1c1,1.7,2.1,3.5,3.1,5.2c1,1.7,1.9,3.4,2.9,5.1c1,1.8,2,3.6,3,5.4c1,1.8,1.9,3.6,2.8,5.3
			c0.9,1.8,1.9,3.5,2.8,5.3c0.9,1.8,1.8,3.6,2.7,5.5c0.9,1.8,1.8,3.5,2.6,5.3c0.9,1.8,1.7,3.7,2.6,5.5c0.8,1.8,1.7,3.6,2.5,5.4
			c0.8,1.8,1.6,3.7,2.4,5.6c0.8,1.8,1.6,3.7,2.4,5.5c0.8,1.9,1.6,3.8,2.3,5.7c0.7,1.8,1.5,3.6,2.2,5.5c0.8,1.9,1.5,3.9,2.2,5.8
			c0.7,1.8,1.4,3.7,2.1,5.5c0.7,1.9,1.4,3.9,2.1,5.9c0.7,1.9,1.3,3.7,2,5.6c0.7,2,1.3,4,1.9,5.9c0.6,1.9,1.2,3.8,1.8,5.7
			c0.6,2,1.2,4,1.8,6c0.6,1.9,1.2,3.8,1.7,5.7c0.6,2,1.1,4,1.6,6c0.5,2,1.1,3.9,1.6,5.9c0.5,2,1,4,1.5,6c0.5,2,1,3.9,1.4,5.9
			c0.5,2,0.9,4.1,1.3,6.1c0.4,2,0.9,4,1.3,6c0.4,2,0.8,4.1,1.2,6.1c0.4,2,0.8,4,1.2,6c0.4,2,0.7,4.1,1,6.1c0.3,2.1,0.7,4.1,1,6.2
			c0.3,2,0.6,4.1,0.9,6.1c0.3,2.1,0.6,4.2,0.9,6.3c0.3,2.1,0.5,4.1,0.7,6.2c0.2,2.1,0.5,4.2,0.7,6.3c0.2,2.1,0.4,4.2,0.6,6.2
			c0.2,2.1,0.4,4.2,0.6,6.3c0.2,2.1,0.3,4.1,0.4,6.2c0.1,2.2,0.3,4.3,0.4,6.5c0.1,2.1,0.2,4.1,0.3,6.2c0.1,2.2,0.2,4.3,0.2,6.5
			c0.1,2.1,0.1,4.2,0.1,6.2c0,1.9,0.1,3.7,0.1,5.6H751.9V251.9z M751.9,751.9h436c-113.8,14-215.8,66.1-292.8,143.2
			c-11.4,11.4-22.2,23.2-32.4,35.6c-0.5,0.6-1,1.3-1.6,2c-2.8,3.4-5.5,6.8-8.2,10.3c-53.8,69.4-89.8,153.4-101,244.9V751.9z
			 M751.9,1748.1L751.9,1748.1v-496.2c1.1,0,2.1,0,3.2,0c3,0,6.1,0.1,9.1,0.1c1.2,0,2.4,0.1,3.6,0.1c3.1,0.1,6.1,0.2,9.2,0.4
			c1.2,0.1,2.3,0.2,3.5,0.2c3.1,0.2,6.1,0.4,9.2,0.6c1.1,0.1,2.3,0.2,3.4,0.3c3.1,0.3,6.1,0.5,9.2,0.8c1.1,0.1,2.1,0.2,3.2,0.4
			c3.1,0.3,6.2,0.7,9.2,1.1c1.1,0.1,2.1,0.3,3.2,0.4c3.1,0.4,6.1,0.8,9.2,1.3c1,0.2,2.1,0.3,3.1,0.5c3.1,0.5,6.1,1,9.2,1.5
			c1,0.2,2,0.4,3,0.6c3.1,0.6,6.1,1.1,9.1,1.8c1,0.2,2,0.4,3,0.7c3,0.6,6,1.3,9,2c1,0.2,2,0.5,3,0.7c3,0.7,6,1.4,9,2.2
			c1,0.3,1.9,0.5,2.9,0.8c3,0.8,6,1.6,8.9,2.4c1,0.3,1.9,0.6,2.9,0.9c2.9,0.9,5.9,1.7,8.8,2.6c1,0.3,1.9,0.6,2.9,0.9
			c2.9,0.9,5.8,1.9,8.7,2.8c1,0.3,1.9,0.7,2.9,1c2.9,1,5.7,2,8.5,3c1,0.4,2,0.8,3.1,1.2c2.8,1,5.5,2.1,8.3,3.2
			c1,0.4,2.1,0.9,3.1,1.3c2.7,1.1,5.4,2.2,8.1,3.3c1.1,0.5,2.2,1,3.3,1.4c2.6,1.1,5.2,2.3,7.8,3.4c1.1,0.5,2.2,1,3.3,1.5
			c2.6,1.2,5.1,2.4,7.7,3.6c1.1,0.5,2.2,1.1,3.2,1.6c2.5,1.2,5,2.5,7.5,3.8c1.1,0.6,2.3,1.2,3.4,1.8c2.4,1.3,4.8,2.5,7.2,3.8
			c1.1,0.6,2.3,1.3,3.4,1.9c2.4,1.3,4.7,2.6,7.1,4c1.2,0.7,2.4,1.4,3.5,2.1c2.3,1.3,4.5,2.7,6.8,4c1.2,0.7,2.4,1.5,3.6,2.2
			c2.2,1.4,4.4,2.7,6.6,4.1c1.3,0.8,2.6,1.7,3.9,2.6c2,1.3,4.1,2.7,6.1,4c1.3,0.9,2.6,1.8,3.9,2.7c2,1.4,4,2.7,5.9,4.1
			c1.3,0.9,2.6,1.9,4,2.9c1.9,1.4,3.8,2.7,5.7,4.1c1.5,1.1,2.9,2.2,4.3,3.3c1.7,1.3,3.4,2.6,5.1,3.9c1.4,1.1,2.9,2.3,4.3,3.5
			c1.7,1.3,3.3,2.7,5,4c1.5,1.2,3,2.5,4.5,3.8c1.5,1.3,3.1,2.6,4.6,3.9c1.8,1.5,3.5,3.1,5.2,4.7c1.2,1.1,2.5,2.2,3.7,3.3
			c1.8,1.7,3.6,3.3,5.4,5c1.1,1,2.2,2.1,3.3,3.1c2.9,2.7,5.7,5.5,8.5,8.3c2.8,2.8,5.6,5.7,8.3,8.5c1,1.1,2,2.1,3,3.2
			c1.7,1.8,3.5,3.7,5.2,5.5c1,1.1,2,2.3,3,3.4c1.6,1.8,3.3,3.7,4.9,5.5c1.1,1.3,2.3,2.7,3.4,4c1.4,1.7,2.9,3.4,4.3,5.1
			c1.1,1.4,2.2,2.8,3.4,4.2c1.4,1.7,2.8,3.4,4.1,5.1c1.1,1.4,2.2,2.8,3.3,4.2c1.3,1.7,2.7,3.5,4,5.2c1.1,1.5,2.2,3,3.3,4.6
			c1.2,1.7,2.5,3.4,3.7,5.1c1.1,1.5,2.2,3.1,3.2,4.7c1.2,1.7,2.4,3.4,3.6,5.2c1.1,1.6,2.1,3.2,3.2,4.9c1.1,1.7,2.3,3.4,3.4,5.1
			c1.1,1.7,2.2,3.4,3.2,5.2c1,1.7,2.1,3.3,3.1,5c1,1.7,2,3.4,3,5.1c1,1.7,2.1,3.5,3.1,5.2c1,1.7,1.9,3.4,2.9,5.1c1,1.8,2,3.6,3,5.4
			c1,1.8,1.9,3.6,2.8,5.3c0.9,1.8,1.9,3.5,2.8,5.3c0.9,1.8,1.8,3.6,2.7,5.5c0.9,1.8,1.8,3.5,2.6,5.3c0.9,1.8,1.7,3.7,2.6,5.5
			c0.8,1.8,1.7,3.6,2.5,5.4c0.8,1.9,1.6,3.7,2.5,5.6c0.8,1.8,1.6,3.6,2.4,5.5c0.8,1.9,1.6,3.8,2.3,5.7c0.7,1.8,1.5,3.6,2.2,5.5
			c0.8,1.9,1.5,3.9,2.2,5.8c0.7,1.8,1.4,3.7,2.1,5.5c0.7,1.9,1.4,3.9,2.1,5.9c0.7,1.9,1.3,3.7,2,5.6c0.7,2,1.3,4,1.9,5.9
			c0.6,1.9,1.2,3.8,1.8,5.7c0.6,2,1.2,4,1.8,6c0.6,1.9,1.2,3.8,1.7,5.7c0.6,2,1.1,4,1.6,6c0.5,1.9,1.1,3.9,1.6,5.8
			c0.5,2,1,4,1.5,6.1c0.5,2,1,3.9,1.4,5.9c0.5,2,0.9,4.1,1.4,6.1c0.4,2,0.9,4,1.3,5.9c0.4,2,0.8,4.1,1.2,6.2c0.4,2,0.8,4,1.2,6
			c0.4,2,0.7,4.1,1,6.1c0.3,2.1,0.7,4.1,1,6.2c0.3,2,0.6,4.1,0.9,6.1c0.3,2.1,0.6,4.2,0.9,6.2c0.3,2.1,0.5,4.1,0.7,6.2
			c0.2,2.1,0.5,4.2,0.7,6.2c0.2,2.1,0.4,4.2,0.6,6.2c0.2,2.1,0.4,4.2,0.6,6.3c0.2,2.1,0.3,4.1,0.4,6.2c0.1,2.2,0.3,4.3,0.4,6.5
			c0.1,2.1,0.2,4.1,0.3,6.2c0.1,2.2,0.2,4.3,0.2,6.5c0.1,2.1,0.1,4.2,0.1,6.2c0,1.9,0.1,3.7,0.1,5.6H751.9z M1248.1,1687.9
			c-12-97-51.6-185.5-110.8-257.2c-10.2-12.4-21-24.3-32.4-35.6c-77.1-77.1-179.1-129.2-292.8-143.2h436V1687.9z M1248.1,1248.1
			H751.9c0-1.7,0-3.5,0.1-5.2c0-2.2,0-4.5,0.1-6.7c0.1-2,0.2-4,0.2-6.1c0.1-2.2,0.2-4.5,0.3-6.7c0.1-2,0.2-4,0.4-6
			c0.1-2.2,0.3-4.5,0.4-6.7c0.2-2,0.3-3.9,0.5-5.9c0.2-2.2,0.4-4.5,0.6-6.7c0.2-1.9,0.4-3.9,0.7-5.8c0.3-2.2,0.5-4.5,0.8-6.7
			c0.2-1.9,0.5-3.8,0.8-5.7c0.3-2.2,0.6-4.4,1-6.7c0.3-1.9,0.6-3.8,0.9-5.6c0.4-2.2,0.7-4.4,1.1-6.6c0.3-1.9,0.7-3.7,1.1-5.5
			c0.4-2.2,0.8-4.4,1.3-6.7c0.4-1.8,0.8-3.7,1.2-5.5c0.5-2.2,0.9-4.4,1.4-6.6c0.4-1.8,0.9-3.7,1.3-5.5c0.5-2.2,1-4.3,1.6-6.5
			c0.5-1.8,1-3.6,1.5-5.4c0.6-2.2,1.2-4.3,1.8-6.5c0.5-1.8,1.1-3.6,1.6-5.3c0.6-2.1,1.3-4.3,1.9-6.4c0.6-1.8,1.1-3.5,1.7-5.3
			c0.7-2.1,1.4-4.2,2.1-6.3c0.6-1.8,1.2-3.5,1.8-5.2c0.7-2.1,1.5-4.2,2.2-6.2c0.6-1.7,1.3-3.4,2-5.2c0.8-2.1,1.5-4.1,2.4-6.2
			c0.7-1.7,1.4-3.4,2.1-5.1c0.8-2,1.6-4.1,2.5-6.1c0.7-1.7,1.5-3.3,2.2-5c0.9-2,1.8-4.1,2.7-6.1c0.8-1.7,1.5-3.3,2.3-4.9
			c0.9-2,1.8-4,2.8-6c0.8-1.7,1.6-3.3,2.5-5c1-1.9,1.9-3.9,2.9-5.8c0.9-1.7,1.7-3.3,2.6-5c1-1.9,2-3.8,3-5.7
			c0.9-1.6,1.8-3.3,2.7-4.9c1-1.9,2.1-3.7,3.1-5.6c0.9-1.6,1.9-3.2,2.9-4.9c1.1-1.8,2.1-3.7,3.2-5.5c1-1.6,2-3.2,3-4.9
			c1.1-1.8,2.2-3.5,3.3-5.3c1-1.6,2.1-3.2,3.2-4.9c1.1-1.7,2.2-3.4,3.4-5.1c1.1-1.6,2.1-3.1,3.2-4.6c1.2-1.7,2.4-3.5,3.6-5.2
			c1.1-1.6,2.3-3.2,3.5-4.8c1.2-1.6,2.3-3.3,3.5-4.9c1.3-1.7,2.6-3.4,3.9-5c1.1-1.5,2.3-3,3.4-4.4c1.3-1.7,2.6-3.3,4-4.9
			c1.2-1.5,2.3-2.9,3.5-4.4c1.4-1.7,2.9-3.4,4.3-5.1c1.1-1.3,2.2-2.7,3.4-4c1.5-1.7,3-3.4,4.5-5.1c1.1-1.3,2.2-2.6,3.4-3.8
			c1.6-1.7,3.2-3.4,4.8-5.2c1.1-1.2,2.2-2.4,3.3-3.6c2.7-2.9,5.5-5.7,8.3-8.5c2.8-2.8,5.6-5.6,8.5-8.3c1.6-1.5,3.2-3,4.8-4.4
			c1.3-1.2,2.6-2.5,4-3.7c1.6-1.5,3.3-2.9,5-4.4c1.3-1.2,2.6-2.4,4-3.5c1.7-1.4,3.3-2.8,5-4.2c1.4-1.2,2.7-2.3,4.1-3.5
			c1.8-1.5,3.5-2.9,5.3-4.3c1.3-1.1,2.6-2.1,4-3.2c1.9-1.5,3.8-2.9,5.7-4.4c1.3-1,2.5-1.9,3.8-2.9c2-1.5,4.1-3,6.1-4.5
			c1.2-0.8,2.3-1.7,3.5-2.5c2.1-1.5,4.3-3,6.4-4.5c1.1-0.8,2.3-1.6,3.4-2.4c2.2-1.5,4.4-2.9,6.6-4.4c1.1-0.7,2.2-1.5,3.4-2.2
			c2.3-1.5,4.6-2.9,6.8-4.3c1.1-0.7,2.2-1.4,3.3-2.1c2.4-1.4,4.8-2.8,7.2-4.3c1-0.6,2.1-1.2,3.1-1.8c2.4-1.4,4.9-2.7,7.3-4.1
			c1.1-0.6,2.1-1.2,3.1-1.8c2.5-1.4,5.1-2.7,7.6-4c1-0.5,2-1.1,3-1.6c2.6-1.3,5.2-2.6,7.8-3.9c1-0.5,2-1,3-1.5
			c2.7-1.3,5.3-2.5,8-3.8c1-0.4,1.9-0.9,2.9-1.3c2.7-1.2,5.5-2.4,8.2-3.6c0.9-0.4,1.9-0.8,2.8-1.2c2.7-1.2,5.5-2.3,8.2-3.4
			c1-0.4,2-0.8,3-1.2c2.8-1.1,5.6-2.2,8.4-3.2c1-0.4,1.9-0.7,2.9-1.1c2.9-1,5.7-2.1,8.6-3c1-0.3,1.9-0.7,2.9-1
			c2.9-1,5.8-1.9,8.7-2.8c1-0.3,1.9-0.6,2.9-0.9c2.9-0.9,5.9-1.8,8.8-2.6c1-0.3,1.9-0.6,2.9-0.9c2.9-0.8,5.9-1.6,8.9-2.4
			c1-0.3,2-0.5,3-0.8c3-0.8,5.9-1.5,8.9-2.2c1-0.2,2-0.5,3-0.7c3-0.7,6-1.4,9.1-2c1-0.2,2-0.4,3-0.6c3-0.6,6.1-1.2,9.2-1.8
			c1-0.2,2-0.4,3-0.6c3-0.6,6.1-1.1,9.2-1.5c1-0.2,2.1-0.4,3.1-0.5c3.1-0.5,6.1-0.9,9.2-1.3c1-0.1,2.1-0.3,3.1-0.4
			c3.1-0.4,6.2-0.7,9.3-1.1c1.1-0.1,2.1-0.3,3.2-0.4c3.1-0.3,6.1-0.6,9.2-0.8c1.1-0.1,2.2-0.2,3.4-0.3c3-0.2,6.1-0.4,9.2-0.6
			c1.2-0.1,2.3-0.2,3.5-0.2c3-0.2,6.1-0.3,9.1-0.4c1.2,0,2.4-0.1,3.6-0.1c3-0.1,6-0.1,9.1-0.1c1.1,0,2.1,0,3.2,0V1248.1z
			 M1248.1,687.9c-12-97-51.6-185.5-110.8-257.2c-10.2-12.4-21-24.3-32.4-35.6c-77.1-77.1-179.1-129.2-292.8-143.2h436V687.9z
			 M1251.9,251.9h496.2c0,1.9,0,3.8-0.1,5.7c0,2.1,0,4.1-0.1,6.2c-0.1,2.2-0.2,4.4-0.3,6.6c-0.1,2.1-0.1,4.1-0.3,6.2
			c-0.1,2.2-0.3,4.3-0.4,6.5c-0.1,2-0.3,4.1-0.4,6.1c-0.2,2.2-0.4,4.3-0.6,6.4c-0.2,2-0.4,4.1-0.6,6.1c-0.2,2.1-0.5,4.2-0.7,6.3
			c-0.2,2.1-0.5,4.1-0.7,6.2c-0.3,2.1-0.6,4.1-0.9,6.2c-0.3,2.1-0.6,4.1-0.9,6.2c-0.3,2.1-0.7,4.1-1,6.2c-0.3,2-0.7,4.1-1,6.1
			c-0.4,2.1-0.8,4.1-1.2,6.2c-0.4,2-0.8,4-1.2,6c-0.4,2-0.9,4.1-1.3,6.1c-0.4,2-0.9,4-1.3,6c-0.5,2-1,4-1.5,6c-0.5,2-1,4-1.5,6
			c-0.5,2-1.1,3.9-1.6,5.9c-0.5,2-1.1,4-1.6,5.9c-0.6,2-1.2,3.9-1.8,5.9c-0.6,1.9-1.1,3.9-1.7,5.8c-0.6,1.9-1.3,3.9-1.9,5.8
			c-0.6,1.9-1.2,3.9-1.9,5.8c-0.6,1.9-1.3,3.8-2,5.7c-0.7,1.9-1.3,3.9-2.1,5.8c-0.7,1.9-1.4,3.8-2.1,5.6c-0.7,1.9-1.4,3.8-2.2,5.7
			c-0.7,1.9-1.5,3.7-2.3,5.5c-0.8,1.9-1.5,3.8-2.3,5.7c-0.8,1.8-1.6,3.6-2.4,5.4c-0.8,1.9-1.6,3.8-2.5,5.6c-0.8,1.8-1.7,3.7-2.6,5.5
			c-0.8,1.8-1.7,3.6-2.6,5.4c-0.9,1.8-1.8,3.6-2.7,5.5c-0.9,1.8-1.8,3.6-2.7,5.3c-0.9,1.8-1.9,3.6-2.8,5.3c-0.9,1.8-1.8,3.5-2.8,5.3
			c-1,1.7-1.9,3.5-2.9,5.2c-1,1.8-2,3.5-3,5.3c-1,1.7-2,3.4-3.1,5.2c-1,1.7-2,3.4-3,5.1c-1.1,1.8-2.2,3.5-3.3,5.2
			c-1,1.6-2,3.3-3.1,4.9c-1.1,1.7-2.2,3.4-3.4,5.1c-1.1,1.6-2.1,3.3-3.2,4.9c-1.1,1.6-2.3,3.3-3.4,4.9c-1.1,1.6-2.3,3.3-3.4,4.9
			c-1.2,1.7-2.4,3.3-3.6,4.9c-1.1,1.6-2.3,3.1-3.4,4.7c-1.3,1.8-2.7,3.5-4,5.2c-1.1,1.4-2.2,2.8-3.3,4.2c-1.4,1.7-2.7,3.4-4.1,5.1
			c-1.1,1.4-2.2,2.8-3.4,4.2c-1.5,1.8-3,3.6-4.6,5.4c-1,1.2-2.1,2.5-3.1,3.7c-1.6,1.8-3.2,3.6-4.8,5.4c-1.1,1.2-2.1,2.4-3.2,3.6
			c-1.6,1.7-3.2,3.4-4.8,5.2c-1.1,1.2-2.2,2.4-3.3,3.6c-2.7,2.9-5.5,5.7-8.3,8.5c-2.8,2.8-5.7,5.6-8.5,8.3c-1.2,1.2-2.5,2.3-3.8,3.5
			c-1.7,1.5-3.3,3.1-5,4.6c-1.3,1.2-2.7,2.4-4.1,3.6c-1.6,1.4-3.2,2.9-4.9,4.3c-1.4,1.2-2.9,2.5-4.4,3.7c-1.6,1.3-3.1,2.7-4.7,4
			c-1.6,1.3-3.2,2.6-4.8,3.9c-1.5,1.2-3,2.4-4.5,3.6c-1.7,1.3-3.4,2.6-5.1,3.9c-1.4,1.1-2.9,2.2-4.3,3.3c-1.9,1.4-3.8,2.8-5.7,4.1
			c-1.3,1-2.6,1.9-4,2.9c-2,1.4-3.9,2.7-5.9,4.1c-1.3,0.9-2.6,1.8-3.9,2.7c-2,1.4-4.1,2.7-6.1,4c-1.3,0.8-2.6,1.7-3.9,2.6
			c-2.1,1.4-4.3,2.7-6.4,4c-1.3,0.8-2.5,1.6-3.7,2.3c-2.2,1.4-4.5,2.7-6.8,4c-1.2,0.7-2.3,1.4-3.5,2.1c-2.3,1.3-4.7,2.6-7,3.9
			c-1.2,0.6-2.3,1.3-3.5,1.9c-2.4,1.3-4.8,2.6-7.3,3.8c-1.1,0.6-2.2,1.2-3.4,1.8c-2.5,1.3-5,2.5-7.5,3.7c-1.1,0.5-2.2,1.1-3.3,1.6
			c-2.6,1.2-5.1,2.4-7.7,3.6c-1.1,0.5-2.1,1-3.2,1.5c-2.6,1.2-5.3,2.3-7.9,3.5c-1.1,0.5-2.1,0.9-3.2,1.4c-2.6,1.1-5.3,2.2-8,3.3
			c-1.1,0.4-2.1,0.9-3.2,1.3c-2.7,1.1-5.5,2.1-8.3,3.2c-1,0.4-2,0.8-3,1.2c-2.8,1-5.6,2-8.4,3c-1,0.4-2,0.7-3,1.1
			c-2.8,1-5.7,1.9-8.5,2.8c-1,0.3-2,0.7-3.1,1c-2.9,0.9-5.8,1.7-8.6,2.6c-1,0.3-2,0.6-3.1,0.9c-2.9,0.8-5.8,1.6-8.8,2.4
			c-1,0.3-2,0.6-3.1,0.8c-2.9,0.8-5.9,1.5-8.8,2.2c-1,0.2-2.1,0.5-3.1,0.8c-3,0.7-6,1.3-9,2c-1,0.2-2,0.5-3.1,0.7
			c-3,0.6-6.1,1.2-9.1,1.8c-1,0.2-2,0.4-3.1,0.6c-3,0.5-6.1,1-9.1,1.5c-1,0.2-2.1,0.4-3.1,0.5c-3.1,0.5-6.1,0.9-9.2,1.3
			c-1.1,0.1-2.1,0.3-3.2,0.4c-3.1,0.4-6.2,0.7-9.2,1.1c-1.1,0.1-2.1,0.3-3.2,0.4c-3.1,0.3-6.1,0.6-9.2,0.8c-1.1,0.1-2.3,0.2-3.4,0.3
			c-3,0.2-6.1,0.4-9.2,0.6c-1.2,0.1-2.3,0.2-3.5,0.2c-3,0.2-6.1,0.3-9.1,0.4c-1.2,0-2.4,0.1-3.6,0.1c-3,0.1-6,0.1-9.1,0.1
			c-1.1,0-2.1,0-3.2,0V251.9z M1251.9,812.1c13.1,106.2,59.4,202.1,128.2,277.1c4.9,5.3,9.9,10.6,15,15.7
			c77.1,77.1,179.1,129.2,292.8,143.2h-436V812.1z M1302.1,1745.4c-3.1,0.3-6.1,0.6-9.2,0.8c-1.1,0.1-2.3,0.2-3.4,0.3
			c-3,0.2-6.1,0.4-9.2,0.6c-1.2,0.1-2.3,0.2-3.5,0.2c-3,0.2-6.1,0.3-9.1,0.4c-1.2,0-2.4,0.1-3.6,0.1c-3,0.1-6,0.1-9.1,0.1
			c-1.1,0-2.1,0-3.2,0v-496.2h496.2c0,1.9,0,3.8-0.1,5.7c0,2.1,0,4.1-0.1,6.2c-0.1,2.2-0.2,4.4-0.3,6.6c-0.1,2.1-0.1,4.1-0.3,6.2
			c-0.1,2.2-0.3,4.3-0.4,6.5c-0.1,2-0.3,4.1-0.4,6.1c-0.2,2.2-0.4,4.3-0.6,6.4c-0.2,2-0.4,4.1-0.6,6.1c-0.2,2.1-0.5,4.2-0.7,6.3
			c-0.2,2.1-0.5,4.1-0.7,6.2c-0.3,2.1-0.6,4.1-0.9,6.2c-0.3,2.1-0.6,4.1-0.9,6.2c-0.3,2.1-0.7,4.1-1,6.2c-0.3,2-0.7,4.1-1,6.1
			c-0.4,2.1-0.8,4.1-1.2,6.2c-0.4,2-0.8,4-1.2,6c-0.4,2-0.9,4.1-1.3,6.1c-0.4,2-0.9,4-1.3,6c-0.5,2-1,4-1.5,6c-0.5,2-1,4-1.5,6
			c-0.5,2-1.1,3.9-1.6,5.9c-0.5,2-1.1,4-1.6,5.9c-0.6,2-1.2,3.9-1.8,5.9c-0.6,1.9-1.1,3.9-1.7,5.8c-0.6,1.9-1.3,3.9-1.9,5.8
			c-0.6,1.9-1.2,3.9-1.9,5.8c-0.6,1.9-1.3,3.8-2,5.7c-0.7,1.9-1.3,3.9-2.1,5.8c-0.7,1.9-1.4,3.8-2.1,5.6c-0.7,1.9-1.4,3.8-2.2,5.7
			c-0.7,1.9-1.5,3.7-2.3,5.5c-0.8,1.9-1.5,3.8-2.3,5.7c-0.8,1.8-1.6,3.6-2.4,5.4c-0.8,1.9-1.6,3.8-2.5,5.6c-0.8,1.8-1.7,3.7-2.6,5.5
			c-0.8,1.8-1.7,3.6-2.6,5.4c-0.9,1.8-1.8,3.6-2.7,5.5c-0.9,1.8-1.8,3.6-2.7,5.3c-0.9,1.8-1.9,3.6-2.8,5.3c-0.9,1.8-1.8,3.5-2.8,5.3
			c-1,1.7-1.9,3.5-2.9,5.2c-1,1.8-2,3.5-3,5.3c-1,1.7-2,3.4-3.1,5.2c-1,1.7-2,3.4-3,5.1c-1.1,1.8-2.2,3.5-3.3,5.2
			c-1,1.6-2,3.3-3.1,4.9c-1.1,1.7-2.2,3.4-3.4,5.1c-1.1,1.6-2.1,3.3-3.2,4.9c-1.1,1.6-2.3,3.3-3.4,4.9c-1.1,1.6-2.3,3.3-3.4,4.9
			c-1.2,1.7-2.4,3.3-3.6,4.9c-1.1,1.6-2.3,3.1-3.4,4.7c-1.3,1.8-2.7,3.5-4,5.2c-1.1,1.4-2.2,2.8-3.3,4.2c-1.4,1.7-2.7,3.4-4.1,5.1
			c-1.1,1.4-2.2,2.8-3.4,4.2c-1.5,1.8-3,3.6-4.6,5.4c-1,1.2-2.1,2.5-3.1,3.7c-1.6,1.8-3.2,3.6-4.8,5.4c-1.1,1.2-2.1,2.4-3.2,3.6
			c-1.6,1.7-3.2,3.4-4.8,5.2c-1.1,1.2-2.2,2.4-3.3,3.6c-2.7,2.9-5.5,5.7-8.3,8.5c-2.8,2.8-5.7,5.6-8.5,8.3c-1.2,1.2-2.5,2.3-3.8,3.5
			c-1.7,1.5-3.3,3.1-5,4.6c-1.3,1.2-2.7,2.4-4.1,3.6c-1.6,1.4-3.2,2.9-4.9,4.3c-1.4,1.2-2.9,2.5-4.4,3.7c-1.6,1.3-3.1,2.7-4.7,4
			c-1.6,1.3-3.2,2.6-4.8,3.9c-1.5,1.2-3,2.4-4.5,3.6c-1.7,1.3-3.4,2.6-5.1,3.9c-1.4,1.1-2.9,2.2-4.3,3.3c-1.9,1.4-3.8,2.8-5.7,4.1
			c-1.3,1-2.6,1.9-4,2.9c-2,1.4-3.9,2.7-5.9,4.1c-1.3,0.9-2.6,1.8-3.9,2.7c-2,1.4-4.1,2.7-6.1,4c-1.3,0.8-2.6,1.7-3.9,2.6
			c-2.1,1.4-4.3,2.7-6.4,4c-1.3,0.8-2.5,1.6-3.7,2.3c-2.2,1.4-4.5,2.7-6.8,4c-1.2,0.7-2.3,1.4-3.5,2.1c-2.3,1.3-4.7,2.6-7,3.9
			c-1.2,0.6-2.3,1.3-3.5,1.9c-2.4,1.3-4.8,2.6-7.3,3.8c-1.1,0.6-2.2,1.2-3.4,1.8c-2.5,1.3-5,2.5-7.5,3.7c-1.1,0.5-2.2,1.1-3.3,1.6
			c-2.6,1.2-5.1,2.4-7.7,3.6c-1.1,0.5-2.1,1-3.2,1.5c-2.6,1.2-5.3,2.3-7.9,3.5c-1.1,0.5-2.1,0.9-3.2,1.4c-2.6,1.1-5.3,2.2-8,3.3
			c-1.1,0.4-2.1,0.9-3.2,1.3c-2.7,1.1-5.5,2.1-8.3,3.2c-1,0.4-2,0.8-3,1.2c-2.8,1-5.6,2-8.4,3c-1,0.4-2,0.7-3,1.1
			c-2.8,1-5.7,1.9-8.5,2.8c-1,0.3-2,0.7-3.1,1c-2.9,0.9-5.8,1.7-8.6,2.6c-1,0.3-2,0.6-3.1,0.9c-2.9,0.8-5.8,1.6-8.8,2.4
			c-1,0.3-2,0.6-3.1,0.8c-2.9,0.8-5.9,1.5-8.8,2.2c-1,0.2-2.1,0.5-3.1,0.8c-3,0.7-6,1.3-9,2c-1,0.2-2,0.5-3.1,0.7
			c-3,0.6-6.1,1.2-9.1,1.8c-1,0.2-2,0.4-3.1,0.6c-3,0.5-6.1,1-9.1,1.5c-1,0.2-2.1,0.4-3.1,0.5c-3.1,0.5-6.1,0.9-9.2,1.3
			c-1.1,0.1-2.1,0.3-3.2,0.4c-3.1,0.4-6.2,0.7-9.2,1.1C1304.3,1745.1,1303.2,1745.3,1302.1,1745.4z M1748.1,1748.1h-436
			c113.8-14,215.8-66.1,292.8-143.2c11.4-11.4,22.2-23.2,32.4-35.6c59.2-71.7,98.8-160.2,110.8-257.2V1748.1z M1748.1,1248.1
			c-1.1,0-2.2,0-3.3,0c-3,0-6-0.1-9-0.1c-1.2,0-2.4-0.1-3.7-0.1c-3-0.1-6.1-0.2-9.1-0.4c-1.2-0.1-2.4-0.2-3.6-0.2
			c-3-0.2-6.1-0.4-9.1-0.6c-1.2-0.1-2.3-0.2-3.5-0.3c-3-0.3-6.1-0.5-9.1-0.8c-1.1-0.1-2.2-0.3-3.3-0.4c-3.1-0.3-6.1-0.7-9.2-1.1
			c-1.1-0.1-2.1-0.3-3.2-0.5c-3.1-0.4-6.1-0.8-9.2-1.3c-1-0.2-2.1-0.3-3.1-0.5c-3.1-0.5-6.1-1-9.2-1.5c-1-0.2-2.1-0.4-3.1-0.6
			c-3-0.6-6.1-1.1-9.1-1.8c-1-0.2-2-0.4-3.1-0.7c-3-0.6-6-1.3-9-2c-1-0.2-2-0.5-3-0.7c-3-0.7-6-1.4-8.9-2.2c-1-0.3-2-0.5-2.9-0.8
			c-3-0.8-5.9-1.6-8.9-2.4c-1-0.3-1.9-0.6-2.9-0.9c-2.9-0.9-5.9-1.7-8.8-2.6c-1-0.3-1.9-0.6-2.9-0.9c-2.9-0.9-5.8-1.9-8.7-2.9
			c-1-0.3-1.9-0.7-2.9-1c-2.9-1-5.7-2-8.6-3c-1-0.4-2-0.8-3-1.1c-2.8-1-5.6-2.1-8.3-3.2c-1-0.4-2-0.8-3-1.2
			c-2.8-1.1-5.5-2.2-8.2-3.4c-1-0.4-1.9-0.8-2.8-1.2c-2.7-1.2-5.5-2.4-8.2-3.6c-1-0.5-2-0.9-3-1.4c-2.6-1.2-5.3-2.4-7.9-3.7
			c-1-0.5-2-1-3-1.5c-2.6-1.3-5.2-2.5-7.7-3.9c-1-0.5-2.1-1.1-3.1-1.6c-2.5-1.3-5-2.6-7.5-4c-1.1-0.6-2.1-1.2-3.1-1.8
			c-2.4-1.4-4.9-2.7-7.3-4.1c-1-0.6-2-1.2-3.1-1.8c-2.4-1.4-4.9-2.8-7.3-4.3c-1.1-0.7-2.1-1.3-3.2-2c-2.3-1.4-4.6-2.9-6.9-4.3
			c-1.2-0.8-2.4-1.6-3.5-2.3c-2.2-1.4-4.3-2.8-6.4-4.3c-1.1-0.8-2.3-1.6-3.4-2.4c-2.1-1.5-4.3-2.9-6.4-4.5c-1.2-0.8-2.3-1.7-3.5-2.5
			c-2.1-1.5-4.1-3-6.2-4.5c-1.3-1-2.5-1.9-3.8-2.9c-1.9-1.4-3.8-2.9-5.7-4.4c-1.3-1-2.5-2-3.8-3c-1.8-1.5-3.7-2.9-5.5-4.4
			c-1.3-1.1-2.5-2.1-3.8-3.2c-1.8-1.5-3.5-3-5.3-4.5c-1.4-1.3-2.9-2.5-4.3-3.8c-1.5-1.4-3.1-2.7-4.6-4.1c-1.5-1.4-3-2.8-4.5-4.2
			c-1.4-1.3-2.8-2.6-4.2-4c-2.9-2.7-5.7-5.5-8.5-8.3c-2.8-2.8-5.6-5.7-8.3-8.5c-1-1.1-2-2.1-3-3.2c-1.7-1.8-3.5-3.7-5.2-5.5
			c-1-1.1-2-2.3-3-3.4c-1.6-1.8-3.3-3.7-4.9-5.5c-1.1-1.3-2.3-2.7-3.4-4c-1.4-1.7-2.9-3.4-4.3-5.1c-1.2-1.4-2.3-2.9-3.5-4.4
			c-1.3-1.6-2.7-3.3-4-4.9c-1.2-1.5-2.4-3.1-3.5-4.6c-1.2-1.6-2.5-3.2-3.7-4.9c-1.2-1.6-2.4-3.2-3.6-4.9c-1.2-1.6-2.3-3.2-3.5-4.8
			c-1.2-1.6-2.3-3.3-3.4-4.9c-1.1-1.6-2.3-3.3-3.4-4.9c-1.1-1.6-2.1-3.3-3.2-4.9c-1.1-1.7-2.3-3.4-3.4-5.1c-1.1-1.7-2.1-3.4-3.2-5.2
			c-1-1.7-2.1-3.3-3.1-5c-1.1-1.8-2.1-3.6-3.2-5.4c-1-1.6-2-3.3-2.9-4.9c-1-1.8-2-3.6-3-5.4c-0.9-1.7-1.9-3.4-2.8-5.1
			c-1-1.9-2-3.8-3-5.6c-0.9-1.7-1.8-3.3-2.6-5c-1-1.9-1.9-3.8-2.9-5.7c-0.8-1.7-1.7-3.4-2.5-5.1c-0.9-1.9-1.8-3.9-2.7-5.8
			c-0.8-1.7-1.6-3.4-2.4-5.1c-0.9-2-1.7-4-2.6-5.9c-0.7-1.7-1.5-3.4-2.2-5.1c-0.8-2-1.6-4-2.5-6c-0.7-1.7-1.4-3.5-2.1-5.2
			c-0.8-2-1.5-4-2.3-6.1c-0.7-1.8-1.4-3.5-2-5.3c-0.8-2-1.5-4.1-2.2-6.2c-0.6-1.8-1.3-3.5-1.9-5.3c-0.7-2.1-1.4-4.2-2-6.2
			c-0.6-1.8-1.2-3.6-1.7-5.4c-0.7-2.1-1.3-4.2-1.9-6.3c-0.5-1.8-1.1-3.6-1.6-5.4c-0.6-2.1-1.2-4.3-1.8-6.4c-0.5-1.8-1-3.6-1.5-5.4
			c-0.6-2.1-1.1-4.3-1.6-6.5c-0.4-1.8-0.9-3.7-1.3-5.5c-0.5-2.2-1-4.3-1.4-6.5c-0.4-1.9-0.8-3.7-1.2-5.6c-0.4-2.2-0.9-4.4-1.3-6.5
			c-0.4-1.9-0.7-3.8-1.1-5.6c-0.4-2.2-0.7-4.4-1.1-6.6c-0.3-1.9-0.6-3.8-0.9-5.7c-0.3-2.2-0.6-4.4-1-6.7c-0.3-1.9-0.6-3.8-0.8-5.7
			c-0.3-2.2-0.5-4.4-0.8-6.6c-0.2-2-0.5-3.9-0.7-5.9c-0.2-2.2-0.4-4.4-0.6-6.6c-0.2-2-0.4-3.9-0.5-5.9c-0.2-2.2-0.3-4.4-0.4-6.6
			c-0.1-2-0.3-4-0.4-6c-0.1-2.2-0.2-4.4-0.3-6.6c-0.1-2-0.2-4.1-0.2-6.1c-0.1-2.2-0.1-4.4-0.1-6.6c0-1.8-0.1-3.5-0.1-5.3h496.2
			V1248.1z M1748.1,748.1h-436c113.8-14,215.8-66.1,292.8-143.2c11.4-11.4,22.2-23.2,32.4-35.6c59.2-71.7,98.8-160.2,110.8-257.2
			V748.1z"/>
		<path class="st1" d="M1972.3,188.1c-27.2-28.1-44-66.8-44-109.7c0-28.6,7.5-55.5,20.6-78.5h-4.4c-12.8,23.2-20.1,49.9-20.1,78.5
			c0,43.9,17.2,83.6,45.1,112.3c9.1,9.4,19.3,17.6,30.4,24.4v-4.5C1989.9,204.3,1980.6,196.7,1972.3,188.1z"/>
		<path class="st1" d="M1809.2,469.6c-28.8,27.9-46.6,66.4-46.6,108.9c0,42.5,17.8,81,46.6,108.9c28.8,27.9,68.5,45.1,112.3,45.1
			c28.5,0,55.3-7.3,78.5-20.1V708c-23,13.1-49.8,20.6-78.5,20.6c-42.8,0-81.6-16.8-109.7-44c-27.6-26.8-44.8-63.6-45.3-104.3H2000
			v-3.8h-233.5c0.5-40.7,17.7-77.5,45.3-104.3c28.1-27.2,66.8-44,109.7-44c28.6,0,55.5,7.5,78.5,20.6v-4.4
			c-23.2-12.8-49.9-20.1-78.5-20.1C1877.7,424.5,1838,441.7,1809.2,469.6z"/>
		<path class="st1" d="M1421.5,580.4c42.5,0,81-17.8,108.9-46.6c27.9-28.8,45.1-68.5,45.1-112.3c0-43.9-17.2-83.6-45.1-112.3
			c-27.9-28.8-66.4-46.6-108.9-46.6c-42.5,0-81,17.8-108.9,46.6c-27.9,28.8-45.1,68.5-45.1,112.3c0,43.9,17.2,83.6,45.1,112.3
			C1340.5,562.6,1379,580.4,1421.5,580.4z M1423.4,266.5c40.7,0.5,77.5,17.7,104.3,45.3c27.2,28.1,44,66.8,44,109.7
			c0,42.8-16.8,81.6-44,109.7c-26.8,27.6-63.6,44.8-104.3,45.3V266.5z M1315.3,311.9c26.8-27.6,63.6-44.8,104.3-45.3v310
			c-40.7-0.5-77.5-17.7-104.3-45.3c-27.2-28.1-44-66.8-44-109.7C1271.3,378.7,1288.1,339.9,1315.3,311.9z"/>
		<path class="st1" d="M1033.8,469.6c-28.8-27.9-68.5-45.1-112.3-45.1c-43.9,0-83.6,17.2-112.3,45.1
			c-28.8,27.9-46.6,66.4-46.6,108.9c0,42.5,17.8,81,46.6,108.9c28.8,27.9,68.5,45.1,112.3,45.1c43.9,0,83.6-17.2,112.3-45.1
			c28.8-27.9,46.6-66.4,46.6-108.9C1080.4,535.9,1062.6,497.4,1033.8,469.6z M1031.2,684.7c-28.1,27.2-66.8,44-109.7,44
			c-42.8,0-81.6-16.8-109.7-44c-27.6-26.8-44.8-63.6-45.3-104.3h310C1076,621.1,1058.8,657.9,1031.2,684.7z M766.5,576.6
			c0.5-40.7,17.7-77.5,45.3-104.3c28.1-27.2,66.8-44,109.7-44c42.8,0,81.6,16.8,109.7,44c27.6,26.8,44.8,63.6,45.3,104.3H766.5z"/>
		<path class="st1" d="M421.5,580.4c42.5,0,81-17.8,108.9-46.6c27.9-28.8,45.1-68.5,45.1-112.3c0-43.9-17.2-83.6-45.1-112.3
			c-27.9-28.8-66.4-46.6-108.9-46.6c-42.5,0-81,17.8-108.9,46.6c-27.9,28.8-45.1,68.5-45.1,112.3c0,43.9,17.2,83.6,45.1,112.3
			C340.5,562.6,379,580.4,421.5,580.4z M423.4,266.5c40.7,0.5,77.5,17.7,104.3,45.3c27.2,28.1,44,66.8,44,109.7
			c0,42.8-16.8,81.6-44,109.7c-26.8,27.6-63.6,44.8-104.3,45.3V266.5z M315.3,311.9c26.8-27.6,63.6-44.8,104.3-45.3v310
			c-40.7-0.5-77.5-17.7-104.3-45.3c-27.2-28.1-44-66.8-44-109.7C271.3,378.7,288.1,339.9,315.3,311.9z"/>
		<path class="st1" d="M80.4,578.5c0-42.5-17.8-81-46.6-108.9c-10-9.7-21.4-18.2-33.8-25v4.4c11.4,6.5,21.9,14.4,31.2,23.4
			C58.8,499,76,535.9,76.5,576.6H0v3.8h76.5c-0.5,40.7-17.7,77.5-45.3,104.3c-9.3,9-19.8,16.9-31.2,23.4v4.4
			c12.4-6.9,23.8-15.3,33.8-25C62.6,659.5,80.4,621,80.4,578.5z"/>
		<path class="st1" d="M187.4,1190.8c27.9-28.8,45.1-68.5,45.1-112.3c0-43.9-17.2-83.6-45.1-112.3c-27.9-28.8-66.4-46.6-108.9-46.6
			c-28.7,0-55.5,8.1-78.5,22.1v4.5c22.3-14.2,48.5-22.4,76.6-22.8v310c-28-0.4-54.2-8.6-76.6-22.8v4.5c23,14.1,49.8,22.1,78.5,22.1
			C121,1237.3,159.5,1219.6,187.4,1190.8z M80.4,923.5c40.7,0.5,77.5,17.7,104.3,45.3c27.2,28.1,44,66.8,44,109.7
			c0,42.8-16.8,81.6-44,109.7c-26.8,27.6-63.6,44.8-104.3,45.3V923.5z"/>
		<path class="st1" d="M466.2,1030.4c28.8,27.9,68.5,45.1,112.3,45.1c43.9,0,83.6-17.2,112.3-45.1c28.8-27.9,46.6-66.4,46.6-108.9
			c0-42.5-17.8-81-46.6-108.9c-28.8-27.9-68.5-45.1-112.3-45.1c-43.9,0-83.6,17.2-112.3,45.1c-28.8,27.9-46.6,66.4-46.6,108.9
			C419.6,964.1,437.4,1002.6,466.2,1030.4z M468.8,815.3c28.1-27.2,66.8-44,109.7-44c42.8,0,81.6,16.8,109.7,44
			c27.6,26.8,44.8,63.6,45.3,104.3h-310C424,878.9,441.2,842.1,468.8,815.3z M733.5,923.4c-0.5,40.7-17.7,77.5-45.3,104.3
			c-28.1,27.2-66.8,44-109.7,44c-42.8,0-81.6-16.8-109.7-44c-27.6-26.8-44.8-63.6-45.3-104.3H733.5z"/>
		<path class="st1" d="M1078.5,919.6c-42.5,0-81,17.8-108.9,46.6c-27.9,28.8-45.1,68.5-45.1,112.3c0,43.9,17.2,83.6,45.1,112.3
			c27.9,28.8,66.4,46.6,108.9,46.6c42.5,0,81-17.8,108.9-46.6c27.9-28.8,45.1-68.5,45.1-112.3c0-43.9-17.2-83.6-45.1-112.3
			C1159.5,937.4,1121,919.6,1078.5,919.6z M1076.6,1233.5c-40.7-0.5-77.5-17.7-104.3-45.3c-27.2-28.1-44-66.8-44-109.7
			c0-42.8,16.8-81.6,44-109.7c26.8-27.6,63.6-44.8,104.3-45.3V1233.5z M1184.7,1188.1c-26.8,27.6-63.6,44.8-104.3,45.3v-310
			c40.7,0.5,77.5,17.7,104.3,45.3c27.2,28.1,44,66.8,44,109.7C1228.7,1121.3,1211.9,1160.1,1184.7,1188.1z"/>
		<path class="st1" d="M1466.2,1030.4c28.8,27.9,68.5,45.1,112.3,45.1c43.9,0,83.6-17.2,112.3-45.1c28.8-27.9,46.6-66.4,46.6-108.9
			c0-42.5-17.8-81-46.6-108.9c-28.8-27.9-68.5-45.1-112.3-45.1c-43.9,0-83.6,17.2-112.3,45.1c-28.8,27.9-46.6,66.4-46.6,108.9
			C1419.6,964.1,1437.4,1002.6,1466.2,1030.4z M1468.8,815.3c28.1-27.2,66.8-44,109.7-44c42.8,0,81.6,16.8,109.7,44
			c27.6,26.8,44.8,63.6,45.3,104.3h-310C1424,878.9,1441.2,842.1,1468.8,815.3z M1733.5,923.4c-0.5,40.7-17.7,77.5-45.3,104.3
			c-28.1,27.2-66.8,44-109.7,44c-42.8,0-81.6-16.8-109.7-44c-27.6-26.8-44.8-63.6-45.3-104.3H1733.5z"/>
		<path class="st1" d="M1969.6,966.2c-27.9,28.8-45.1,68.5-45.1,112.3c0,43.9,17.2,83.6,45.1,112.3c9.1,9.4,19.3,17.6,30.4,24.4
			v-4.5c-10.1-6.4-19.4-14-27.7-22.6c-27.2-28.1-44-66.8-44-109.7c0-42.8,16.8-81.6,44-109.7c8.3-8.6,17.6-16.2,27.7-22.6v-4.5
			C1988.9,948.6,1978.7,956.8,1969.6,966.2z"/>
		<path class="st1" d="M1809.2,1469.6c-28.8,27.9-46.6,66.4-46.6,108.9c0,42.5,17.8,81,46.6,108.9c28.8,27.9,68.5,45.1,112.3,45.1
			c28.5,0,55.3-7.3,78.5-20.1v-4.4c-23,13.1-49.8,20.6-78.5,20.6c-42.8,0-81.6-16.8-109.7-44c-27.6-26.8-44.8-63.6-45.3-104.3H2000
			v-3.8h-233.5c0.5-40.7,17.7-77.5,45.3-104.3c28.1-27.2,66.8-44,109.7-44c28.6,0,55.5,7.5,78.5,20.6v-4.4
			c-23.2-12.8-49.9-20.1-78.5-20.1C1877.7,1424.5,1838,1441.7,1809.2,1469.6z"/>
		<path class="st1" d="M1421.5,1580.4c42.5,0,81-17.8,108.9-46.6c27.9-28.8,45.1-68.5,45.1-112.3c0-43.9-17.2-83.6-45.1-112.3
			c-27.9-28.8-66.4-46.6-108.9-46.6c-42.5,0-81,17.8-108.9,46.6c-27.9,28.8-45.1,68.5-45.1,112.3c0,43.9,17.2,83.6,45.1,112.3
			C1340.5,1562.6,1379,1580.4,1421.5,1580.4z M1423.4,1266.5c40.7,0.5,77.5,17.7,104.3,45.3c27.2,28.1,44,66.8,44,109.7
			c0,42.8-16.8,81.6-44,109.7c-26.8,27.6-63.6,44.8-104.3,45.3V1266.5z M1271.3,1421.5c0-42.8,16.8-81.6,44-109.7
			c26.8-27.6,63.6-44.8,104.3-45.3v310c-40.7-0.5-77.5-17.7-104.3-45.3C1288.1,1503.1,1271.3,1464.4,1271.3,1421.5z"/>
		<path class="st1" d="M1033.8,1469.6c-28.8-27.9-68.5-45.1-112.3-45.1c-43.9,0-83.6,17.2-112.3,45.1
			c-28.8,27.9-46.6,66.4-46.6,108.9c0,42.5,17.8,81,46.6,108.9c28.8,27.9,68.5,45.1,112.3,45.1c43.9,0,83.6-17.2,112.3-45.1
			c28.8-27.9,46.6-66.4,46.6-108.9C1080.4,1535.9,1062.6,1497.4,1033.8,1469.6z M1031.2,1684.7c-28.1,27.2-66.8,44-109.7,44
			c-42.8,0-81.6-16.8-109.7-44c-27.6-26.8-44.8-63.6-45.3-104.3h310C1076,1621.1,1058.8,1657.9,1031.2,1684.7z M766.5,1576.6
			c0.5-40.7,17.7-77.5,45.3-104.3c28.1-27.2,66.8-44,109.7-44c42.8,0,81.6,16.8,109.7,44c27.6,26.8,44.8,63.6,45.3,104.3H766.5z"/>
		<path class="st1" d="M421.5,1580.4c42.5,0,81-17.8,108.9-46.6c27.9-28.8,45.1-68.5,45.1-112.3c0-43.9-17.2-83.6-45.1-112.3
			c-27.9-28.8-66.4-46.6-108.9-46.6c-42.5,0-81,17.8-108.9,46.6c-27.9,28.8-45.1,68.5-45.1,112.3c0,43.9,17.2,83.6,45.1,112.3
			C340.5,1562.6,379,1580.4,421.5,1580.4z M423.4,1266.5c40.7,0.5,77.5,17.7,104.3,45.3c27.2,28.1,44,66.8,44,109.7
			c0,42.8-16.8,81.6-44,109.7c-26.8,27.6-63.6,44.8-104.3,45.3V1266.5z M271.3,1421.5c0-42.8,16.8-81.6,44-109.7
			c26.8-27.6,63.6-44.8,104.3-45.3v310c-40.7-0.5-77.5-17.7-104.3-45.3C288.1,1503.1,271.3,1464.4,271.3,1421.5z"/>
		<path class="st1" d="M80.4,1578.5c0-42.5-17.8-81-46.6-108.9c-10-9.7-21.4-18.2-33.8-25v4.4c11.4,6.5,21.9,14.4,31.2,23.4
			c27.6,26.8,44.8,63.6,45.3,104.3H0v3.8h76.5c-0.5,40.7-17.7,77.5-45.3,104.3c-9.3,9-19.8,16.9-31.2,23.4v4.4
			c12.4-6.9,23.8-15.3,33.8-25C62.6,1659.5,80.4,1621,80.4,1578.5z"/>
		<path class="st1" d="M78.5,1919.6c-28.7,0-55.5,8.1-78.5,22.1v4.5c22.3-14.2,48.5-22.4,76.6-22.8v76.5h3.8v-76.5
			c40.7,0.5,77.5,17.7,104.3,45.3c9,9.3,16.9,19.8,23.4,31.2h4.4c-6.9-12.4-15.3-23.8-25-33.8C159.5,1937.4,121,1919.6,78.5,1919.6z
			"/>
		<path class="st1" d="M690.8,1812.6c-28.8-27.9-68.5-45.1-112.3-45.1c-43.9,0-83.6,17.2-112.3,45.1
			c-28.8,27.9-46.6,66.4-46.6,108.9c0,28.7,8.1,55.5,22.1,78.5h4.5c-14.2-22.3-22.4-48.5-22.8-76.6h310c-0.4,28-8.6,54.2-22.8,76.6
			h4.5c14.1-23,22.1-49.8,22.1-78.5C737.3,1879,719.6,1840.5,690.8,1812.6z M423.5,1919.6c0.5-40.7,17.7-77.5,45.3-104.3
			c28.1-27.2,66.8-44,109.7-44c42.8,0,81.6,16.8,109.7,44c27.6,26.8,44.8,63.6,45.3,104.3H423.5z"/>
		<path class="st1" d="M1078.5,1919.6c-42.5,0-81,17.8-108.9,46.6c-9.7,10-18.2,21.4-25,33.8h4.4c6.5-11.4,14.4-21.9,23.4-31.2
			c26.8-27.6,63.6-44.8,104.3-45.3v76.5h3.8v-76.5c40.7,0.5,77.5,17.7,104.3,45.3c9,9.3,16.9,19.8,23.4,31.2h4.4
			c-6.9-12.4-15.3-23.8-25-33.8C1159.5,1937.4,1121,1919.6,1078.5,1919.6z"/>
		<path class="st1" d="M1690.8,1812.6c-28.8-27.9-68.5-45.1-112.3-45.1c-43.9,0-83.6,17.2-112.3,45.1
			c-28.8,27.9-46.6,66.4-46.6,108.9c0,28.7,8.1,55.5,22.1,78.5h4.5c-14.2-22.3-22.4-48.5-22.8-76.6h310c-0.4,28-8.6,54.2-22.8,76.6
			h4.5c14.1-23,22.1-49.8,22.1-78.5C1737.3,1879,1719.6,1840.5,1690.8,1812.6z M1423.5,1919.6c0.5-40.7,17.7-77.5,45.3-104.3
			c28.1-27.2,66.8-44,109.7-44c42.8,0,81.6,16.8,109.7,44c27.6,26.8,44.8,63.6,45.3,104.3H1423.5z"/>
		<path class="st1" d="M1895.1,1895.1c-16.5,16.5-31.7,34.1-45.8,52.7c-12.6,16.6-24.2,34.1-34.6,52.2h0h4.4h0
			c14.4-24.8,31-48.2,49.3-70c9.3-11.1,19.1-21.9,29.4-32.2c30.4-30.4,64.8-56.9,102.2-78.7v0v-4.4v0c-33.7,19.4-64.9,42.5-93,68.9
			C1903,1887.4,1899,1891.2,1895.1,1895.1z"/>
		<path class="st1" d="M1969.6,1966.2c-9.7,10-18.2,21.4-25,33.8h4.4c6.5-11.4,14.4-21.9,23.4-31.2c8.3-8.6,17.6-16.2,27.7-22.6
			v-4.5C1988.9,1948.6,1978.7,1956.8,1969.6,1966.2z"/>
	</g>
</g>
</svg>
